<svg xmlns="http://www.w3.org/2000/svg" width="150" height="150" viewBox="0 0 134.545 141.999">
    <g id="Handshake_icon" data-name="Handshake icon" transform="translate(-558.333 -2029.001)">
        <g id="support_1_" data-name="support (1)" transform="translate(561.439 2040.001)" opacity="0.15">
        <path id="Path_19" data-name="Path 19" d="M247.593,16.519a2.557,2.557,0,0,0,2.557-2.557V2.557a2.557,2.557,0,1,0-5.114,0v11.4A2.557,2.557,0,0,0,247.593,16.519Z" transform="translate(-182.153)" fill="#151515" stroke="#151515" stroke-width="2"/>
        <path id="Path_20" data-name="Path 20" d="M127.944,149.141l-4.517-4.5a8.563,8.563,0,0,0-10.132-1.446l-8.512-8.5.415-.414a8.875,8.875,0,0,0,0-12.531,8.778,8.778,0,0,0-4.451-2.407,8.93,8.93,0,0,0,.353-2.488,8.855,8.855,0,0,0-7.044-8.673,8.929,8.929,0,0,0,.353-2.488,8.846,8.846,0,0,0-7.043-8.669,8.849,8.849,0,0,0-9.458-11.294L61.038,82.532c-2.573-.488-5.785-.811-7.813,1.039a4.618,4.618,0,0,0-.387.4,8.892,8.892,0,0,0-9.33,2.052,8.8,8.8,0,0,0-2.591,6.269,8.941,8.941,0,0,0,.352,2.488,8.857,8.857,0,0,0-7.042,8.663,8.915,8.915,0,0,0,.353,2.495,8.867,8.867,0,0,0-5.5,13.683,8.861,8.861,0,0,0-3.4,14.659l.413.411-8.513,8.5a8.549,8.549,0,0,0-9.673,1.676l-4.52,4.507a8.542,8.542,0,0,0,0,12.063l5.641,5.634a2.557,2.557,0,0,0,3.614-3.618L7,157.817a3.429,3.429,0,0,1,0-4.825l4.52-4.508a3.424,3.424,0,0,1,4.171-.511,2.578,2.578,0,0,0,.322.394,2.545,2.545,0,0,0,.735.511l25.922,25.884a2.519,2.519,0,0,0,1.233,1.246,3.422,3.422,0,0,1-.142,4.669l-4.516,4.51a3.435,3.435,0,0,1-4.835,0l-5.641-5.642a2.557,2.557,0,1,0-3.616,3.616l5.645,5.646a8.561,8.561,0,0,0,12.058,0l4.518-4.513a8.55,8.55,0,0,0,1.2-10.56l9.581-9.57.031-.031c1.1-1.134,4.152-.922,7.107-.717a36.778,36.778,0,0,0,6.726.045l10.492,10.48a8.546,8.546,0,0,0,1.451,10.123l4.519,4.513a8.55,8.55,0,0,0,12.061,0l27.407-27.373a8.541,8.541,0,0,0,0-12.064ZM60.086,87.557l11.092,2.1-6.639,6.637A16.12,16.12,0,0,1,60.56,93.4c-2.114-2.022-3.626-4.357-3.763-5.813a.007.007,0,0,1,0,0h0a2.233,2.233,0,0,1-.011-.252,8.664,8.664,0,0,1,3.3.223ZM47.122,89.642a3.772,3.772,0,0,1,4.772-.452c.83,3.478,3.8,6.63,5.131,7.907.989.947,4.163,3.784,7.367,4.564a3.753,3.753,0,0,1-5.737,4.793h0L47.122,94.942a3.765,3.765,0,0,1,0-5.3ZM40.44,100.8a3.771,3.771,0,0,1,5.313,0l9.286,9.267a3.758,3.758,0,0,1-5.319,5.31h0l-7.045-7.043-.034-.032-2.2-2.2a3.752,3.752,0,0,1,0-5.3Zm-6.694,11.156a3.783,3.783,0,0,1,5.3-.018L46.108,119a3.753,3.753,0,0,1-5.318,5.3l-2.562-2.559,0,0-4.481-4.475a3.762,3.762,0,0,1,0-5.307Zm-4.453,13.4a3.78,3.78,0,0,1,5.321,0l2.565,2.562a3.753,3.753,0,0,1-5.32,5.3l-.321-.32-.012-.013-.015-.013-2.216-2.207a3.755,3.755,0,0,1,0-5.3ZM81.4,154.42a2.557,2.557,0,0,0-3.616,0l-2.275,2.272c-2.162,2.162-6.079,1.89-9.867,1.627-4.114-.286-8.367-.581-11.12,2.245l-9.419,9.407L21.553,146.451l8.335-8.32a8.868,8.868,0,0,0,13.5-7.563c0-.022,0-.044,0-.066l.066,0a8.845,8.845,0,0,0,8.865-8.854c0-.022,0-.044,0-.066l.067,0a8.835,8.835,0,0,0,8.865-8.922l.069,0a8.87,8.87,0,0,0,7.569-13.482l7.306-7.3a3.751,3.751,0,0,1,1.919-1.023c.076-.008.151-.02.226-.035a3.747,3.747,0,0,1,3.183,6.36L79.292,99.4l-.023.021-2.563,2.558A2.557,2.557,0,1,0,80.32,105.6l2.234-2.231,0,0,.338-.336a3.766,3.766,0,0,1,5.307.013,3.752,3.752,0,0,1-.006,5.3l-2.238,2.242h0l-2.562,2.552A2.557,2.557,0,0,0,87,116.759l2.574-2.564a3.753,3.753,0,0,1,5.311,5.3l-4.461,4.463a2.557,2.557,0,1,0,3.617,3.615l2.186-2.187c.012-.012.026-.022.038-.035a3.753,3.753,0,0,1,5.312,5.3l-2.223,2.22,0,0,0,0-3.528,3.524a2.557,2.557,0,0,0,3.614,3.619l1.726-1.724,8.271,8.262L85.885,170.087l-8.438-8.428a10.056,10.056,0,0,0,1.68-1.352l2.274-2.271a2.556,2.556,0,0,0,0-3.616Zm42.93,3.167L96.925,184.96a3.437,3.437,0,0,1-4.833,0l-4.519-4.513a3.419,3.419,0,0,1,0-4.819l27.407-27.373a3.437,3.437,0,0,1,4.835,0l4.517,4.5a3.428,3.428,0,0,1,0,4.826Z" transform="translate(0 -61.294)" fill="#151515" stroke="#151515" stroke-width="2"/>
        <path id="Path_21" data-name="Path 21" d="M91.792,16.411a2.557,2.557,0,0,0,3.613-3.62l-9.318-9.3a2.557,2.557,0,1,0-3.613,3.62Z" transform="translate(-60.306 -2.048)" fill="#151515" stroke="#151515" stroke-width="2"/>
        <path id="Path_22" data-name="Path 22" d="M374.208,17.159a2.55,2.55,0,0,0,1.807-.748l9.311-9.3a2.557,2.557,0,0,0-3.614-3.618l-9.311,9.3a2.557,2.557,0,0,0,1.807,4.366Z" transform="translate(-276.62 -2.048)" fill="#151515" stroke="#151515" stroke-width="2"/>
        <path id="Path_24" data-name="Path 24" d="M335.073,337.234a2.558,2.558,0,1,0-1.149-4.841l-.014.007a2.556,2.556,0,0,0,1.163,4.834Z" transform="translate(-247.417 -247.791)" fill="#151515" stroke="#151515" stroke-width="2"/>
        <path id="Path_31" data-name="Path 31" d="M171.49,92.346a7.938,7.938,0,0,0-11.218.4l-.176.19a7.937,7.937,0,1,0,11.652,10.781l.14-.15A7.938,7.938,0,0,0,171.49,92.346Z" transform="translate(-146.452 12.573)" fill="#151515" stroke="#151515" stroke-width="5"/>
        <path id="Path_32" data-name="Path 32" d="M171.49,92.346a7.938,7.938,0,0,0-11.218.4l-.176.19a7.937,7.937,0,1,0,11.652,10.781l.14-.15A7.938,7.938,0,0,0,171.49,92.346Z" transform="translate(-54.452 12.573)" fill="#151515" stroke="#151515" stroke-width="5"/>
        </g>
        <g id="support_1_2" data-name="support (1)" transform="translate(558.439 2030.001)">
        <path id="Path_19-2" data-name="Path 19" d="M247.593,16.519a2.557,2.557,0,0,0,2.557-2.557V2.557a2.557,2.557,0,1,0-5.114,0v11.4A2.557,2.557,0,0,0,247.593,16.519Z" transform="translate(-182.153)" fill="#283fd9" stroke="#283fd9" stroke-width="2"/>
        <path id="Path_20-2" data-name="Path 20" d="M127.944,149.141l-4.517-4.5a8.563,8.563,0,0,0-10.132-1.446l-8.512-8.5.415-.414a8.875,8.875,0,0,0,0-12.531,8.778,8.778,0,0,0-4.451-2.407,8.93,8.93,0,0,0,.353-2.488,8.855,8.855,0,0,0-7.044-8.673,8.929,8.929,0,0,0,.353-2.488,8.846,8.846,0,0,0-7.043-8.669,8.849,8.849,0,0,0-9.458-11.294L61.038,82.532c-2.573-.488-5.785-.811-7.813,1.039a4.618,4.618,0,0,0-.387.4,8.892,8.892,0,0,0-9.33,2.052,8.8,8.8,0,0,0-2.591,6.269,8.941,8.941,0,0,0,.352,2.488,8.857,8.857,0,0,0-7.042,8.663,8.915,8.915,0,0,0,.353,2.495,8.867,8.867,0,0,0-5.5,13.683,8.861,8.861,0,0,0-3.4,14.659l.413.411-8.513,8.5a8.549,8.549,0,0,0-9.673,1.676l-4.52,4.507a8.542,8.542,0,0,0,0,12.063l5.641,5.634a2.557,2.557,0,0,0,3.614-3.618L7,157.817a3.429,3.429,0,0,1,0-4.825l4.52-4.508a3.424,3.424,0,0,1,4.171-.511,2.578,2.578,0,0,0,.322.394,2.545,2.545,0,0,0,.735.511l25.922,25.884a2.519,2.519,0,0,0,1.233,1.246,3.422,3.422,0,0,1-.142,4.669l-4.516,4.51a3.435,3.435,0,0,1-4.835,0l-5.641-5.642a2.557,2.557,0,1,0-3.616,3.616l5.645,5.646a8.561,8.561,0,0,0,12.058,0l4.518-4.513a8.55,8.55,0,0,0,1.2-10.56l9.581-9.57.031-.031c1.1-1.134,4.152-.922,7.107-.717a36.778,36.778,0,0,0,6.726.045l10.492,10.48a8.546,8.546,0,0,0,1.451,10.123l4.519,4.513a8.55,8.55,0,0,0,12.061,0l27.407-27.373a8.541,8.541,0,0,0,0-12.064ZM60.086,87.557l11.092,2.1-6.639,6.637A16.12,16.12,0,0,1,60.56,93.4c-2.114-2.022-3.626-4.357-3.763-5.813a.007.007,0,0,1,0,0h0a2.233,2.233,0,0,1-.011-.252,8.664,8.664,0,0,1,3.3.223ZM47.122,89.642a3.772,3.772,0,0,1,4.772-.452c.83,3.478,3.8,6.63,5.131,7.907.989.947,4.163,3.784,7.367,4.564a3.753,3.753,0,0,1-5.737,4.793h0L47.122,94.942a3.765,3.765,0,0,1,0-5.3ZM40.44,100.8a3.771,3.771,0,0,1,5.313,0l9.286,9.267a3.758,3.758,0,0,1-5.319,5.31h0l-7.045-7.043-.034-.032-2.2-2.2a3.752,3.752,0,0,1,0-5.3Zm-6.694,11.156a3.783,3.783,0,0,1,5.3-.018L46.108,119a3.753,3.753,0,0,1-5.318,5.3l-2.562-2.559,0,0-4.481-4.475a3.762,3.762,0,0,1,0-5.307Zm-4.453,13.4a3.78,3.78,0,0,1,5.321,0l2.565,2.562a3.753,3.753,0,0,1-5.32,5.3l-.321-.32-.012-.013-.015-.013-2.216-2.207a3.755,3.755,0,0,1,0-5.3ZM81.4,154.42a2.557,2.557,0,0,0-3.616,0l-2.275,2.272c-2.162,2.162-6.079,1.89-9.867,1.627-4.114-.286-8.367-.581-11.12,2.245l-9.419,9.407L21.553,146.451l8.335-8.32a8.868,8.868,0,0,0,13.5-7.563c0-.022,0-.044,0-.066l.066,0a8.845,8.845,0,0,0,8.865-8.854c0-.022,0-.044,0-.066l.067,0a8.835,8.835,0,0,0,8.865-8.922l.069,0a8.87,8.87,0,0,0,7.569-13.482l7.306-7.3a3.751,3.751,0,0,1,1.919-1.023c.076-.008.151-.02.226-.035a3.747,3.747,0,0,1,3.183,6.36L79.292,99.4l-.023.021-2.563,2.558A2.557,2.557,0,1,0,80.32,105.6l2.234-2.231,0,0,.338-.336a3.766,3.766,0,0,1,5.307.013,3.752,3.752,0,0,1-.006,5.3l-2.238,2.242h0l-2.562,2.552A2.557,2.557,0,0,0,87,116.759l2.574-2.564a3.753,3.753,0,0,1,5.311,5.3l-4.461,4.463a2.557,2.557,0,1,0,3.617,3.615l2.186-2.187c.012-.012.026-.022.038-.035a3.753,3.753,0,0,1,5.312,5.3l-2.223,2.22,0,0,0,0-3.528,3.524a2.557,2.557,0,0,0,3.614,3.619l1.726-1.724,8.271,8.262L85.885,170.087l-8.438-8.428a10.056,10.056,0,0,0,1.68-1.352l2.274-2.271a2.556,2.556,0,0,0,0-3.616Zm42.93,3.167L96.925,184.96a3.437,3.437,0,0,1-4.833,0l-4.519-4.513a3.419,3.419,0,0,1,0-4.819l27.407-27.373a3.437,3.437,0,0,1,4.835,0l4.517,4.5a3.428,3.428,0,0,1,0,4.826Z" transform="translate(0 -61.294)" fill="#283fd9" stroke="#283fd9" stroke-width="2"/>
        <path id="Path_21-2" data-name="Path 21" d="M91.792,16.411a2.557,2.557,0,0,0,3.613-3.62l-9.318-9.3a2.557,2.557,0,1,0-3.613,3.62Z" transform="translate(-60.306 -2.048)" fill="#283fd9" stroke="#283fd9" stroke-width="2"/>
        <path id="Path_22-2" data-name="Path 22" d="M374.208,17.159a2.55,2.55,0,0,0,1.807-.748l9.311-9.3a2.557,2.557,0,0,0-3.614-3.618l-9.311,9.3a2.557,2.557,0,0,0,1.807,4.366Z" transform="translate(-276.62 -2.048)" fill="#283fd9" stroke="#283fd9" stroke-width="2"/>
        <path id="Path_24-2" data-name="Path 24" d="M335.073,337.234a2.558,2.558,0,1,0-1.149-4.841l-.014.007a2.556,2.556,0,0,0,1.163,4.834Z" transform="translate(-247.417 -247.791)" fill="#283fd9" stroke="#283fd9" stroke-width="2"/>
        <path id="Path_31-2" data-name="Path 31" d="M171.49,92.346a7.938,7.938,0,0,0-11.218.4l-.176.19a7.937,7.937,0,1,0,11.652,10.781l.14-.15A7.938,7.938,0,0,0,171.49,92.346Z" transform="translate(-146.452 12.573)" fill="#fff" stroke="#283fd9" stroke-width="5"/>
        <path id="Path_32-2" data-name="Path 32" d="M171.49,92.346a7.938,7.938,0,0,0-11.218.4l-.176.19a7.937,7.937,0,1,0,11.652,10.781l.14-.15A7.938,7.938,0,0,0,171.49,92.346Z" transform="translate(-54.452 12.573)" fill="#fff" stroke="#283fd9" stroke-width="5"/>
        </g>
    </g>
</svg>