<svg height="150" viewBox="0 0 134.545 141.999" width="150" xmlns="http://www.w3.org/2000/svg"><g fill="#151515" opacity=".15" stroke="#151515" transform="translate(3.106 11)"><g stroke-width="2"><path d="m247.593 16.519a2.557 2.557 0 0 0 2.557-2.557v-11.405a2.557 2.557 0 1 0 -5.114 0v11.4a2.557 2.557 0 0 0 2.557 2.562z" transform="translate(-182.153)"/><path d="m127.944 149.141-4.517-4.5a8.563 8.563 0 0 0 -10.132-1.446l-8.512-8.5.415-.414a8.875 8.875 0 0 0 0-12.531 8.778 8.778 0 0 0 -4.451-2.407 8.93 8.93 0 0 0 .353-2.488 8.855 8.855 0 0 0 -7.044-8.673 8.929 8.929 0 0 0 .353-2.488 8.846 8.846 0 0 0 -7.043-8.669 8.849 8.849 0 0 0 -9.458-11.294l-16.87-3.199c-2.573-.488-5.785-.811-7.813 1.039a4.618 4.618 0 0 0 -.387.4 8.892 8.892 0 0 0 -9.33 2.052 8.8 8.8 0 0 0 -2.591 6.269 8.941 8.941 0 0 0 .352 2.488 8.857 8.857 0 0 0 -7.042 8.663 8.915 8.915 0 0 0 .353 2.495 8.867 8.867 0 0 0 -5.5 13.683 8.861 8.861 0 0 0 -3.4 14.659l.413.411-8.513 8.5a8.549 8.549 0 0 0 -9.673 1.676l-4.52 4.507a8.542 8.542 0 0 0 0 12.063l5.641 5.634a2.557 2.557 0 0 0 3.614-3.618l-5.642-5.636a3.429 3.429 0 0 1 0-4.825l4.52-4.508a3.424 3.424 0 0 1 4.171-.511 2.578 2.578 0 0 0 .322.394 2.545 2.545 0 0 0 .735.511l25.922 25.884a2.519 2.519 0 0 0 1.233 1.246 3.422 3.422 0 0 1 -.142 4.669l-4.516 4.51a3.435 3.435 0 0 1 -4.835 0l-5.641-5.642a2.557 2.557 0 1 0 -3.616 3.616l5.645 5.646a8.561 8.561 0 0 0 12.058 0l4.518-4.513a8.55 8.55 0 0 0 1.2-10.56l9.581-9.57.031-.031c1.1-1.134 4.152-.922 7.107-.717a36.778 36.778 0 0 0 6.726.045l10.492 10.48a8.546 8.546 0 0 0 1.451 10.123l4.519 4.513a8.55 8.55 0 0 0 12.061 0l27.407-27.373a8.541 8.541 0 0 0 0-12.064zm-67.858-61.584 11.092 2.1-6.639 6.637a16.12 16.12 0 0 1 -3.979-2.894c-2.114-2.022-3.626-4.357-3.763-5.813a.007.007 0 0 1 0 0 2.233 2.233 0 0 1 -.011-.252 8.664 8.664 0 0 1 3.3.223zm-12.964 2.085a3.772 3.772 0 0 1 4.772-.452c.83 3.478 3.8 6.63 5.131 7.907.989.947 4.163 3.784 7.367 4.564a3.753 3.753 0 0 1 -5.737 4.793l-11.533-11.512a3.765 3.765 0 0 1 0-5.3zm-6.682 11.158a3.771 3.771 0 0 1 5.313 0l9.286 9.267a3.758 3.758 0 0 1 -5.319 5.31l-7.045-7.043-.034-.032-2.2-2.2a3.752 3.752 0 0 1 0-5.3zm-6.694 11.156a3.783 3.783 0 0 1 5.3-.018l7.062 7.062a3.753 3.753 0 0 1 -5.318 5.3l-2.562-2.559-4.481-4.475a3.762 3.762 0 0 1 0-5.307zm-4.453 13.4a3.78 3.78 0 0 1 5.321 0l2.565 2.562a3.753 3.753 0 0 1 -5.32 5.3l-.321-.32-.012-.013-.015-.013-2.216-2.207a3.755 3.755 0 0 1 0-5.3zm52.107 29.064a2.557 2.557 0 0 0 -3.616 0l-2.275 2.272c-2.162 2.162-6.079 1.89-9.867 1.627-4.114-.286-8.367-.581-11.12 2.245l-9.419 9.407-23.55-23.52 8.335-8.32a8.868 8.868 0 0 0 13.5-7.563c0-.022 0-.044 0-.066h.066a8.845 8.845 0 0 0 8.865-8.854c0-.022 0-.044 0-.066h.067a8.835 8.835 0 0 0 8.865-8.922h.069a8.87 8.87 0 0 0 7.569-13.482l7.306-7.3a3.751 3.751 0 0 1 1.919-1.023c.076-.008.151-.02.226-.035a3.747 3.747 0 0 1 3.183 6.36l-2.231 2.22-.023.021-2.563 2.558a2.557 2.557 0 1 0 3.614 3.621l2.234-2.231.338-.336a3.766 3.766 0 0 1 5.307.013 3.752 3.752 0 0 1 -.006 5.3l-2.238 2.242-2.562 2.552a2.557 2.557 0 0 0 3.607 3.619l2.574-2.564a3.753 3.753 0 0 1 5.311 5.3l-4.461 4.463a2.557 2.557 0 1 0 3.617 3.615l2.186-2.187c.012-.012.026-.022.038-.035a3.753 3.753 0 0 1 5.312 5.3l-2.223 2.22-3.528 3.524a2.557 2.557 0 0 0 3.614 3.619l1.726-1.724 8.271 8.262-23.552 23.535-8.438-8.428a10.056 10.056 0 0 0 1.68-1.352l2.274-2.271a2.556 2.556 0 0 0 0-3.616zm42.93 3.167-27.405 27.373a3.437 3.437 0 0 1 -4.833 0l-4.519-4.513a3.419 3.419 0 0 1 0-4.819l27.407-27.373a3.437 3.437 0 0 1 4.835 0l4.517 4.5a3.428 3.428 0 0 1 0 4.826z" transform="translate(0 -61.294)"/><path d="m91.792 16.411a2.557 2.557 0 0 0 3.613-3.62l-9.318-9.3a2.557 2.557 0 1 0 -3.613 3.62z" transform="translate(-60.306 -2.048)"/><path d="m374.208 17.159a2.55 2.55 0 0 0 1.807-.748l9.311-9.3a2.557 2.557 0 0 0 -3.614-3.618l-9.311 9.3a2.557 2.557 0 0 0 1.807 4.366z" transform="translate(-276.62 -2.048)"/><path d="m335.073 337.234a2.558 2.558 0 1 0 -1.149-4.841l-.014.007a2.556 2.556 0 0 0 1.163 4.834z" transform="translate(-247.417 -247.791)"/></g><path d="m171.49 92.346a7.938 7.938 0 0 0 -11.218.4l-.176.19a7.937 7.937 0 1 0 11.652 10.781l.14-.15a7.938 7.938 0 0 0 -.398-11.221z" stroke-width="5" transform="translate(-146.452 12.573)"/><path d="m171.49 92.346a7.938 7.938 0 0 0 -11.218.4l-.176.19a7.937 7.937 0 1 0 11.652 10.781l.14-.15a7.938 7.938 0 0 0 -.398-11.221z" stroke-width="5" transform="translate(-54.452 12.573)"/></g><g stroke="#283fd9"><path d="m247.593 16.519a2.557 2.557 0 0 0 2.557-2.557v-11.405a2.557 2.557 0 1 0 -5.114 0v11.4a2.557 2.557 0 0 0 2.557 2.562z" fill="#283fd9" stroke-width="2" transform="translate(-182.047 1)"/><path d="m127.944 149.141-4.517-4.5a8.563 8.563 0 0 0 -10.132-1.446l-8.512-8.5.415-.414a8.875 8.875 0 0 0 0-12.531 8.778 8.778 0 0 0 -4.451-2.407 8.93 8.93 0 0 0 .353-2.488 8.855 8.855 0 0 0 -7.044-8.673 8.929 8.929 0 0 0 .353-2.488 8.846 8.846 0 0 0 -7.043-8.669 8.849 8.849 0 0 0 -9.458-11.294l-16.87-3.199c-2.573-.488-5.785-.811-7.813 1.039a4.618 4.618 0 0 0 -.387.4 8.892 8.892 0 0 0 -9.33 2.052 8.8 8.8 0 0 0 -2.591 6.269 8.941 8.941 0 0 0 .352 2.488 8.857 8.857 0 0 0 -7.042 8.663 8.915 8.915 0 0 0 .353 2.495 8.867 8.867 0 0 0 -5.5 13.683 8.861 8.861 0 0 0 -3.4 14.659l.413.411-8.513 8.5a8.549 8.549 0 0 0 -9.673 1.676l-4.52 4.507a8.542 8.542 0 0 0 0 12.063l5.641 5.634a2.557 2.557 0 0 0 3.614-3.618l-5.642-5.636a3.429 3.429 0 0 1 0-4.825l4.52-4.508a3.424 3.424 0 0 1 4.171-.511 2.578 2.578 0 0 0 .322.394 2.545 2.545 0 0 0 .735.511l25.922 25.884a2.519 2.519 0 0 0 1.233 1.246 3.422 3.422 0 0 1 -.142 4.669l-4.516 4.51a3.435 3.435 0 0 1 -4.835 0l-5.641-5.642a2.557 2.557 0 1 0 -3.616 3.616l5.645 5.646a8.561 8.561 0 0 0 12.058 0l4.518-4.513a8.55 8.55 0 0 0 1.2-10.56l9.581-9.57.031-.031c1.1-1.134 4.152-.922 7.107-.717a36.778 36.778 0 0 0 6.726.045l10.492 10.48a8.546 8.546 0 0 0 1.451 10.123l4.519 4.513a8.55 8.55 0 0 0 12.061 0l27.407-27.373a8.541 8.541 0 0 0 0-12.064zm-67.858-61.584 11.092 2.1-6.639 6.637a16.12 16.12 0 0 1 -3.979-2.894c-2.114-2.022-3.626-4.357-3.763-5.813a.007.007 0 0 1 0 0 2.233 2.233 0 0 1 -.011-.252 8.664 8.664 0 0 1 3.3.223zm-12.964 2.085a3.772 3.772 0 0 1 4.772-.452c.83 3.478 3.8 6.63 5.131 7.907.989.947 4.163 3.784 7.367 4.564a3.753 3.753 0 0 1 -5.737 4.793l-11.533-11.512a3.765 3.765 0 0 1 0-5.3zm-6.682 11.158a3.771 3.771 0 0 1 5.313 0l9.286 9.267a3.758 3.758 0 0 1 -5.319 5.31l-7.045-7.043-.034-.032-2.2-2.2a3.752 3.752 0 0 1 0-5.3zm-6.694 11.156a3.783 3.783 0 0 1 5.3-.018l7.062 7.062a3.753 3.753 0 0 1 -5.318 5.3l-2.562-2.559-4.481-4.475a3.762 3.762 0 0 1 0-5.307zm-4.453 13.4a3.78 3.78 0 0 1 5.321 0l2.565 2.562a3.753 3.753 0 0 1 -5.32 5.3l-.321-.32-.012-.013-.015-.013-2.216-2.207a3.755 3.755 0 0 1 0-5.3zm52.107 29.064a2.557 2.557 0 0 0 -3.616 0l-2.275 2.272c-2.162 2.162-6.079 1.89-9.867 1.627-4.114-.286-8.367-.581-11.12 2.245l-9.419 9.407-23.55-23.52 8.335-8.32a8.868 8.868 0 0 0 13.5-7.563c0-.022 0-.044 0-.066h.066a8.845 8.845 0 0 0 8.865-8.854c0-.022 0-.044 0-.066h.067a8.835 8.835 0 0 0 8.865-8.922h.069a8.87 8.87 0 0 0 7.569-13.482l7.306-7.3a3.751 3.751 0 0 1 1.919-1.023c.076-.008.151-.02.226-.035a3.747 3.747 0 0 1 3.183 6.36l-2.231 2.22-.023.021-2.563 2.558a2.557 2.557 0 1 0 3.614 3.621l2.234-2.231.338-.336a3.766 3.766 0 0 1 5.307.013 3.752 3.752 0 0 1 -.006 5.3l-2.238 2.242-2.562 2.552a2.557 2.557 0 0 0 3.607 3.619l2.574-2.564a3.753 3.753 0 0 1 5.311 5.3l-4.461 4.463a2.557 2.557 0 1 0 3.617 3.615l2.186-2.187c.012-.012.026-.022.038-.035a3.753 3.753 0 0 1 5.312 5.3l-2.223 2.22-3.528 3.524a2.557 2.557 0 0 0 3.614 3.619l1.726-1.724 8.271 8.262-23.552 23.535-8.438-8.428a10.056 10.056 0 0 0 1.68-1.352l2.274-2.271a2.556 2.556 0 0 0 0-3.616zm42.93 3.167-27.405 27.373a3.437 3.437 0 0 1 -4.833 0l-4.519-4.513a3.419 3.419 0 0 1 0-4.819l27.407-27.373a3.437 3.437 0 0 1 4.835 0l4.517 4.5a3.428 3.428 0 0 1 0 4.826z" fill="#283fd9" stroke-width="2" transform="translate(.106 -60.294)"/><path d="m91.792 16.411a2.557 2.557 0 0 0 3.613-3.62l-9.318-9.3a2.557 2.557 0 1 0 -3.613 3.62z" fill="#283fd9" stroke-width="2" transform="translate(-60.2 -1.048)"/><path d="m374.208 17.159a2.55 2.55 0 0 0 1.807-.748l9.311-9.3a2.557 2.557 0 0 0 -3.614-3.618l-9.311 9.3a2.557 2.557 0 0 0 1.807 4.366z" fill="#283fd9" stroke-width="2" transform="translate(-276.514 -1.048)"/><path d="m335.073 337.234a2.558 2.558 0 1 0 -1.149-4.841l-.014.007a2.556 2.556 0 0 0 1.163 4.834z" fill="#283fd9" stroke-width="2" transform="translate(-247.311 -246.791)"/><path d="m171.49 92.346a7.938 7.938 0 0 0 -11.218.4l-.176.19a7.937 7.937 0 1 0 11.652 10.781l.14-.15a7.938 7.938 0 0 0 -.398-11.221z" fill="#fff" stroke-width="5" transform="translate(-146.346 13.573)"/><path d="m171.49 92.346a7.938 7.938 0 0 0 -11.218.4l-.176.19a7.937 7.937 0 1 0 11.652 10.781l.14-.15a7.938 7.938 0 0 0 -.398-11.221z" fill="#fff" stroke-width="5" transform="translate(-54.346 13.573)"/></g></svg>