<svg xmlns="http://www.w3.org/2000/svg" width="150" height="150" viewBox="0 0 120.681 141.995">
    <g id="Medal_Icon" data-name="Medal Icon" transform="translate(-562.953 -2108.049)">
        <g id="medal_copy" data-name="medal copy" transform="translate(566.594 2117.696)" opacity="0.15">
        <g id="Group_19" data-name="Group 19" transform="translate(37.348 26.354)">
            <g id="Group_18" data-name="Group 18">
            <path id="Path_25" data-name="Path 25" d="M216.681,117.633a2.566,2.566,0,0,0-2.071-1.745l-11.16-1.619-4.994-10.111a2.566,2.566,0,0,0-2.3-1.429h0a2.565,2.565,0,0,0-2.3,1.431l-4.988,10.114-11.16,1.625a2.565,2.565,0,0,0-1.42,4.376l8.077,7.869-1.9,11.115a2.565,2.565,0,0,0,3.723,2.7l9.98-5.25,9.983,5.245a2.565,2.565,0,0,0,3.722-2.705l-1.909-11.114,8.073-7.873A2.566,2.566,0,0,0,216.681,117.633Zm-13.269,7.772a2.566,2.566,0,0,0-.737,2.271l1.258,7.32-6.575-3.455a2.566,2.566,0,0,0-2.388,0L188.4,135l1.254-7.321a2.566,2.566,0,0,0-.738-2.271l-5.32-5.183,7.35-1.07a2.566,2.566,0,0,0,1.931-1.4l3.285-6.661,3.289,6.66a2.565,2.565,0,0,0,1.932,1.4l7.351,1.066Z" transform="translate(-175.512 -102.728)" fill="#151515" stroke="#151515" stroke-width="2"/>
            </g>
        </g>
        <g id="Group_21" data-name="Group 21" transform="translate(0 0)">
            <g id="Group_20" data-name="Group 20" transform="translate(0 0)">
            <path id="Path_26" data-name="Path 26" d="M145.579,112.716l-21.2-36.883a46.69,46.69,0,1,0-72.9,0l-21.2,36.883a2.565,2.565,0,0,0,2.565,3.821l16.55-2.222,6.35,15.444a2.566,2.566,0,0,0,2.2,1.584q.086.006.172.006a2.565,2.565,0,0,0,2.221-1.283L81.736,92.988l.009-.017a46.809,46.809,0,0,0,12.359,0l.009.017,21.407,37.077a2.566,2.566,0,0,0,2.221,1.283q.085,0,.172-.006a2.566,2.566,0,0,0,2.2-1.584l6.351-15.444,16.55,2.222a2.564,2.564,0,0,0,2.564-3.821ZM58.5,122.98l-4.623-11.242,4.149-6.77a2.565,2.565,0,0,0-4.375-2.681l-4.192,6.841-12.142,1.63L55.084,79.846a46.689,46.689,0,0,0,21.33,12.1ZM87.924,88.25a41.56,41.56,0,1,1,41.56-41.56A41.607,41.607,0,0,1,87.924,88.25Zm38.47,20.878-4.192-6.841a2.565,2.565,0,1,0-4.375,2.681l4.149,6.77-4.623,11.242L99.434,91.944a46.687,46.687,0,0,0,21.33-12.1l17.772,30.912Z" transform="translate(-29.928 0)" fill="#151515" stroke="#151515" stroke-width="2"/>
            </g>
        </g>
        <g id="Group_23" data-name="Group 23" transform="translate(40.354 13.34)">
            <g id="Group_22" data-name="Group 22">
            <path id="Path_27" data-name="Path 27" d="M204.87,52a33.366,33.366,0,0,0-16.334,4.268,2.565,2.565,0,0,0,2.516,4.472,28.231,28.231,0,0,1,39.3,36.754,2.565,2.565,0,1,0,4.63,2.211A33.055,33.055,0,0,0,238.22,85.35,33.388,33.388,0,0,0,204.87,52Z" transform="translate(-187.227 -52)" fill="#151515" stroke="#151515" stroke-width="2"/>
            </g>
        </g>
        <g id="Group_25" data-name="Group 25" transform="translate(77.454 65.571)">
            <g id="Group_24" data-name="Group 24" transform="translate(0)">
            <path id="Path_28" data-name="Path 28" d="M336.257,256.323a2.565,2.565,0,0,0-3.628.054l-.057.058a2.565,2.565,0,1,0,3.671,3.584l.068-.07A2.565,2.565,0,0,0,336.257,256.323Z" transform="translate(-331.843 -255.598)" fill="#151515" stroke="#151515" stroke-width="2"/>
            </g>
        </g>
        <g id="Group_27" data-name="Group 27" transform="translate(24.645 31.376)">
            <g id="Group_26" data-name="Group 26">
            <path id="Path_29" data-name="Path 29" d="M176.429,163.363a2.565,2.565,0,0,0-3.485-1.009,28.233,28.233,0,0,1-39.293-36.418,2.565,2.565,0,1,0-4.669-2.127,33.361,33.361,0,0,0,46.438,43.039A2.565,2.565,0,0,0,176.429,163.363Z" transform="translate(-125.996 -122.306)" fill="#151515" stroke="#151515" stroke-width="2"/>
            </g>
        </g>
        <g id="Group_29" data-name="Group 29" transform="translate(32.852 23.144)">
            <g id="Group_28" data-name="Group 28">
            <path id="Path_30" data-name="Path 30" d="M162.349,90.9a2.565,2.565,0,0,0-3.626.129l-.057.061a2.565,2.565,0,1,0,3.766,3.484l.045-.048A2.565,2.565,0,0,0,162.349,90.9Z" transform="translate(-157.984 -90.216)" fill="#151515" stroke="#151515" stroke-width="2"/>
            </g>
        </g>
        </g>
        <g id="medal_copy-2" data-name="medal copy" transform="translate(564 2109.049)">
        <g id="Group_19-2" data-name="Group 19" transform="translate(37.348 26.354)">
            <g id="Group_18-2" data-name="Group 18">
            <path id="Path_25-2" data-name="Path 25" d="M216.681,117.633a2.566,2.566,0,0,0-2.071-1.745l-11.16-1.619-4.994-10.111a2.566,2.566,0,0,0-2.3-1.429h0a2.565,2.565,0,0,0-2.3,1.431l-4.988,10.114-11.16,1.625a2.565,2.565,0,0,0-1.42,4.376l8.077,7.869-1.9,11.115a2.565,2.565,0,0,0,3.723,2.7l9.98-5.25,9.983,5.245a2.565,2.565,0,0,0,3.722-2.705l-1.909-11.114,8.073-7.873A2.566,2.566,0,0,0,216.681,117.633Zm-13.269,7.772a2.566,2.566,0,0,0-.737,2.271l1.258,7.32-6.575-3.455a2.566,2.566,0,0,0-2.388,0L188.4,135l1.254-7.321a2.566,2.566,0,0,0-.738-2.271l-5.32-5.183,7.35-1.07a2.566,2.566,0,0,0,1.931-1.4l3.285-6.661,3.289,6.66a2.565,2.565,0,0,0,1.932,1.4l7.351,1.066Z" transform="translate(-175.512 -102.728)" fill="#283fd9" stroke="#283fd9" stroke-width="2"/>
            </g>
        </g>
        <g id="Group_21-2" data-name="Group 21" transform="translate(0 0)">
            <g id="Group_20-2" data-name="Group 20" transform="translate(0 0)">
            <path id="Path_26-2" data-name="Path 26" d="M145.579,112.716l-21.2-36.883a46.69,46.69,0,1,0-72.9,0l-21.2,36.883a2.565,2.565,0,0,0,2.565,3.821l16.55-2.222,6.35,15.444a2.566,2.566,0,0,0,2.2,1.584q.086.006.172.006a2.565,2.565,0,0,0,2.221-1.283L81.736,92.988l.009-.017a46.809,46.809,0,0,0,12.359,0l.009.017,21.407,37.077a2.566,2.566,0,0,0,2.221,1.283q.085,0,.172-.006a2.566,2.566,0,0,0,2.2-1.584l6.351-15.444,16.55,2.222a2.564,2.564,0,0,0,2.564-3.821ZM58.5,122.98l-4.623-11.242,4.149-6.77a2.565,2.565,0,0,0-4.375-2.681l-4.192,6.841-12.142,1.63L55.084,79.846a46.689,46.689,0,0,0,21.33,12.1ZM87.924,88.25a41.56,41.56,0,1,1,41.56-41.56A41.607,41.607,0,0,1,87.924,88.25Zm38.47,20.878-4.192-6.841a2.565,2.565,0,1,0-4.375,2.681l4.149,6.77-4.623,11.242L99.434,91.944a46.687,46.687,0,0,0,21.33-12.1l17.772,30.912Z" transform="translate(-29.928 0)" fill="#283fd9" stroke="#283fd9" stroke-width="2"/>
            </g>
        </g>
        <g id="Group_23-2" data-name="Group 23" transform="translate(40.354 13.34)">
            <g id="Group_22-2" data-name="Group 22">
            <path id="Path_27-2" data-name="Path 27" d="M204.87,52a33.366,33.366,0,0,0-16.334,4.268,2.565,2.565,0,0,0,2.516,4.472,28.231,28.231,0,0,1,39.3,36.754,2.565,2.565,0,1,0,4.63,2.211A33.055,33.055,0,0,0,238.22,85.35,33.388,33.388,0,0,0,204.87,52Z" transform="translate(-187.227 -52)" fill="#283fd9" stroke="#283fd9" stroke-width="2"/>
            </g>
        </g>
        <g id="Group_27-2" data-name="Group 27" transform="translate(24.645 31.376)">
            <g id="Group_26-2" data-name="Group 26">
            <path id="Path_29-2" data-name="Path 29" d="M176.429,163.363a2.565,2.565,0,0,0-3.485-1.009,28.233,28.233,0,0,1-39.293-36.418,2.565,2.565,0,1,0-4.669-2.127,33.361,33.361,0,0,0,46.438,43.039A2.565,2.565,0,0,0,176.429,163.363Z" transform="translate(-125.996 -122.306)" fill="#283fd9" stroke="#283fd9" stroke-width="2"/>
            </g>
        </g>
        <g id="Group_29-2" data-name="Group 29" transform="translate(28.511 18.8)">
            <g id="Group_28-2" data-name="Group 28" transform="translate(0 0)">
            <path id="Path_30-2" data-name="Path 30" d="M169.662,92.058a6.864,6.864,0,0,0-9.7.344l-.152.164a6.863,6.863,0,1,0,10.076,9.322l.121-.13A6.864,6.864,0,0,0,169.662,92.058Z" transform="translate(-157.984 -90.216)" fill="#fff" stroke="#283fd9" stroke-width="5"/>
            </g>
            <g id="Group_30" data-name="Group 30" transform="translate(44.965 42.371)">
            <path id="Path_30-3" data-name="Path 30" d="M169.662,92.058a6.864,6.864,0,0,0-9.7.344l-.152.164a6.863,6.863,0,1,0,10.076,9.322l.121-.13A6.864,6.864,0,0,0,169.662,92.058Z" transform="translate(-157.984 -90.216)" fill="#fff" stroke="#283fd9" stroke-width="5"/>
            </g>
        </g>
        </g>
    </g>
</svg>