<svg height="150" viewBox="0 0 120.681 141.995" width="150" xmlns="http://www.w3.org/2000/svg"><g fill="#151515" opacity=".15" stroke="#151515" stroke-width="2"><path d="m216.681 117.633a2.566 2.566 0 0 0 -2.071-1.745l-11.16-1.619-4.994-10.111a2.566 2.566 0 0 0 -2.3-1.429 2.565 2.565 0 0 0 -2.3 1.431l-4.988 10.114-11.16 1.625a2.565 2.565 0 0 0 -1.42 4.376l8.077 7.869-1.9 11.115a2.565 2.565 0 0 0 3.723 2.7l9.98-5.25 9.983 5.245a2.565 2.565 0 0 0 3.722-2.705l-1.909-11.114 8.073-7.873a2.566 2.566 0 0 0 .644-2.629zm-13.269 7.772a2.566 2.566 0 0 0 -.737 2.271l1.258 7.32-6.575-3.455a2.566 2.566 0 0 0 -2.388 0l-6.57 3.459 1.254-7.321a2.566 2.566 0 0 0 -.738-2.271l-5.32-5.183 7.35-1.07a2.566 2.566 0 0 0 1.931-1.4l3.285-6.661 3.289 6.66a2.565 2.565 0 0 0 1.932 1.4l7.351 1.066z" transform="translate(-134.523 -66.727)"/><path d="m145.579 112.716-21.2-36.883a46.69 46.69 0 1 0 -72.9 0l-21.2 36.883a2.565 2.565 0 0 0 2.565 3.821l16.55-2.222 6.35 15.444a2.566 2.566 0 0 0 2.2 1.584q.086.006.172.006a2.565 2.565 0 0 0 2.221-1.283l21.399-37.078.009-.017a46.809 46.809 0 0 0 12.359 0l.009.017 21.407 37.077a2.566 2.566 0 0 0 2.221 1.283q.085 0 .172-.006a2.566 2.566 0 0 0 2.2-1.584l6.351-15.444 16.55 2.222a2.564 2.564 0 0 0 2.564-3.821zm-87.079 10.264-4.623-11.242 4.149-6.77a2.565 2.565 0 0 0 -4.375-2.681l-4.192 6.841-12.142 1.63 17.767-30.912a46.689 46.689 0 0 0 21.33 12.1zm29.424-34.73a41.56 41.56 0 1 1 41.56-41.56 41.607 41.607 0 0 1 -41.56 41.56zm38.47 20.878-4.192-6.841a2.565 2.565 0 1 0 -4.375 2.681l4.149 6.77-4.623 11.242-17.919-31.036a46.687 46.687 0 0 0 21.33-12.1l17.772 30.912z" transform="translate(-26.287 9.647)"/><path d="m204.87 52a33.366 33.366 0 0 0 -16.334 4.268 2.565 2.565 0 0 0 2.516 4.472 28.231 28.231 0 0 1 39.3 36.754 2.565 2.565 0 1 0 4.63 2.211 33.055 33.055 0 0 0 3.238-14.355 33.388 33.388 0 0 0 -33.35-33.35z" transform="translate(-143.232 -29.013)"/><path d="m336.257 256.323a2.565 2.565 0 0 0 -3.628.054l-.057.058a2.565 2.565 0 1 0 3.671 3.584l.068-.07a2.565 2.565 0 0 0 -.054-3.626z" transform="translate(-250.748 -180.38)"/><path d="m176.429 163.363a2.565 2.565 0 0 0 -3.485-1.009 28.233 28.233 0 0 1 -39.293-36.418 2.565 2.565 0 1 0 -4.669-2.127 33.361 33.361 0 0 0 46.438 43.039 2.565 2.565 0 0 0 1.009-3.485z" transform="translate(-97.71 -81.283)"/><path d="m162.349 90.9a2.565 2.565 0 0 0 -3.626.129l-.057.061a2.565 2.565 0 1 0 3.766 3.484l.045-.048a2.565 2.565 0 0 0 -.128-3.626z" transform="translate(-121.491 -57.425)"/></g><g stroke="#283fd9"><path d="m216.681 117.633a2.566 2.566 0 0 0 -2.071-1.745l-11.16-1.619-4.994-10.111a2.566 2.566 0 0 0 -2.3-1.429 2.565 2.565 0 0 0 -2.3 1.431l-4.988 10.114-11.16 1.625a2.565 2.565 0 0 0 -1.42 4.376l8.077 7.869-1.9 11.115a2.565 2.565 0 0 0 3.723 2.7l9.98-5.25 9.983 5.245a2.565 2.565 0 0 0 3.722-2.705l-1.909-11.114 8.073-7.873a2.566 2.566 0 0 0 .644-2.629zm-13.269 7.772a2.566 2.566 0 0 0 -.737 2.271l1.258 7.32-6.575-3.455a2.566 2.566 0 0 0 -2.388 0l-6.57 3.459 1.254-7.321a2.566 2.566 0 0 0 -.738-2.271l-5.32-5.183 7.35-1.07a2.566 2.566 0 0 0 1.931-1.4l3.285-6.661 3.289 6.66a2.565 2.565 0 0 0 1.932 1.4l7.351 1.066z" fill="#283fd9" stroke-width="2" transform="translate(-137.117 -75.374)"/><path d="m145.579 112.716-21.2-36.883a46.69 46.69 0 1 0 -72.9 0l-21.2 36.883a2.565 2.565 0 0 0 2.565 3.821l16.55-2.222 6.35 15.444a2.566 2.566 0 0 0 2.2 1.584q.086.006.172.006a2.565 2.565 0 0 0 2.221-1.283l21.399-37.078.009-.017a46.809 46.809 0 0 0 12.359 0l.009.017 21.407 37.077a2.566 2.566 0 0 0 2.221 1.283q.085 0 .172-.006a2.566 2.566 0 0 0 2.2-1.584l6.351-15.444 16.55 2.222a2.564 2.564 0 0 0 2.564-3.821zm-87.079 10.264-4.623-11.242 4.149-6.77a2.565 2.565 0 0 0 -4.375-2.681l-4.192 6.841-12.142 1.63 17.767-30.912a46.689 46.689 0 0 0 21.33 12.1zm29.424-34.73a41.56 41.56 0 1 1 41.56-41.56 41.607 41.607 0 0 1 -41.56 41.56zm38.47 20.878-4.192-6.841a2.565 2.565 0 1 0 -4.375 2.681l4.149 6.77-4.623 11.242-17.919-31.036a46.687 46.687 0 0 0 21.33-12.1l17.772 30.912z" fill="#283fd9" stroke-width="2" transform="translate(-28.881 1)"/><path d="m204.87 52a33.366 33.366 0 0 0 -16.334 4.268 2.565 2.565 0 0 0 2.516 4.472 28.231 28.231 0 0 1 39.3 36.754 2.565 2.565 0 1 0 4.63 2.211 33.055 33.055 0 0 0 3.238-14.355 33.388 33.388 0 0 0 -33.35-33.35z" fill="#283fd9" stroke-width="2" transform="translate(-145.826 -37.66)"/><path d="m176.429 163.363a2.565 2.565 0 0 0 -3.485-1.009 28.233 28.233 0 0 1 -39.293-36.418 2.565 2.565 0 1 0 -4.669-2.127 33.361 33.361 0 0 0 46.438 43.039 2.565 2.565 0 0 0 1.009-3.485z" fill="#283fd9" stroke-width="2" transform="translate(-100.304 -89.93)"/><path d="m169.662 92.058a6.864 6.864 0 0 0 -9.7.344l-.152.164a6.863 6.863 0 1 0 10.076 9.322l.121-.13a6.864 6.864 0 0 0 -.345-9.7z" fill="#fff" stroke-width="5" transform="translate(-128.426 -70.416)"/><path d="m169.662 92.058a6.864 6.864 0 0 0 -9.7.344l-.152.164a6.863 6.863 0 1 0 10.076 9.322l.121-.13a6.864 6.864 0 0 0 -.345-9.7z" fill="#fff" stroke-width="5" transform="translate(-83.461 -28.045)"/></g></svg>