<svg xmlns="http://www.w3.org/2000/svg" width="150" height="150" viewBox="0 -5 130 150">
    <g id="Team_Ivcon" data-name="Team Ivcon" transform="translate(-1077.5 -2215.5)">
        <g id="team" transform="translate(1081.526 2225.421)" opacity="0.15">
        <g id="Group_32" data-name="Group 32" transform="translate(40.225)">
            <g id="Group_31" data-name="Group 31">
            <path id="Path_33" data-name="Path 33" d="M177.294,24.248a13.951,13.951,0,1,0-18.758,0A17.96,17.96,0,0,0,144,41.852v7.972a1.992,1.992,0,0,0,1.993,1.993h43.845a1.992,1.992,0,0,0,1.993-1.993V41.852A17.96,17.96,0,0,0,177.294,24.248Zm-19.344-10.3a9.965,9.965,0,1,1,9.965,9.965A9.976,9.976,0,0,1,157.951,13.951Zm29.894,33.88H147.986V41.852A13.967,13.967,0,0,1,161.937,27.9h11.958a13.967,13.967,0,0,1,13.951,13.951Z" transform="translate(-144)" fill="#151515" stroke="#151515" stroke-width="2"/>
            </g>
        </g>
        <g id="Group_34" data-name="Group 34" transform="translate(0 69.762)">
            <g id="Group_33" data-name="Group 33">
            <path id="Path_34" data-name="Path 34" d="M33.294,296.248a13.951,13.951,0,1,0-18.758,0A17.96,17.96,0,0,0,0,313.852v7.972a1.992,1.992,0,0,0,1.993,1.993H45.838a1.992,1.992,0,0,0,1.993-1.993v-7.972A17.96,17.96,0,0,0,33.294,296.248Zm-19.344-10.3a9.965,9.965,0,1,1,9.965,9.965A9.976,9.976,0,0,1,13.951,285.951Zm29.894,33.88H3.986v-5.979A13.967,13.967,0,0,1,17.937,299.9H29.894a13.967,13.967,0,0,1,13.951,13.951Z" transform="translate(0 -272)" fill="#151515" stroke="#151515" stroke-width="2"/>
            </g>
        </g>
        <g id="Group_36" data-name="Group 36" transform="translate(85.63 69.762)">
            <g id="Group_35" data-name="Group 35">
            <path id="Path_35" data-name="Path 35" d="M321.294,296.248a13.951,13.951,0,1,0-18.758,0A17.96,17.96,0,0,0,288,313.852v7.972a1.992,1.992,0,0,0,1.993,1.993h43.845a1.992,1.992,0,0,0,1.993-1.993v-7.972A17.96,17.96,0,0,0,321.294,296.248Zm-19.344-10.3a9.965,9.965,0,1,1,9.965,9.965A9.976,9.976,0,0,1,301.951,285.951Zm29.894,33.88H291.986v-5.979A13.967,13.967,0,0,1,305.937,299.9h11.958a13.967,13.967,0,0,1,13.951,13.951Z" transform="translate(-288 -272)" fill="#151515" stroke="#151515" stroke-width="2"/>
            </g>
        </g>
        <g id="Group_38" data-name="Group 38" transform="translate(11.382 64.817)">
            <g id="Group_37" data-name="Group 37">
            <path id="Path_36" data-name="Path 36" d="M36.15,255.744l-3.982.155c.054,1.373.163,2.764.327,4.131l3.958-.474C36.3,258.295,36.2,257.012,36.15,255.744Z" transform="translate(-32.168 -255.744)" fill="#151515" stroke="#151515" stroke-width="2"/>
            </g>
        </g>
        <g id="Group_40" data-name="Group 40" transform="translate(11.382 56.563)">
            <g id="Group_39" data-name="Group 39">
            <path id="Path_37" data-name="Path 37" d="M32.493,223.176c-.161,1.359-.273,2.748-.325,4.129l3.982.155c.05-1.275.151-2.557.3-3.814Z" transform="translate(-32.168 -223.176)" fill="#151515" stroke="#151515" stroke-width="2"/>
            </g>
        </g>
        <g id="Group_42" data-name="Group 42" transform="translate(29.027 20.924)">
            <g id="Group_41" data-name="Group 41">
            <path id="Path_38" data-name="Path 38" d="M104.283,82.544c-1.09.831-2.164,1.72-3.195,2.645l2.665,2.966c.949-.853,1.939-1.674,2.946-2.439Z" transform="translate(-101.088 -82.544)" fill="#151515" stroke="#151515" stroke-width="2"/>
            </g>
        </g>
        <g id="Group_44" data-name="Group 44" transform="translate(14.642 40.415)">
            <g id="Group_43" data-name="Group 43">
            <path id="Path_39" data-name="Path 39" d="M46.87,159.44c-.586,1.246-1.128,2.529-1.614,3.822l3.731,1.4c.448-1.192.949-2.376,1.489-3.522Z" transform="translate(-45.256 -159.44)" fill="#151515" stroke="#151515" stroke-width="2"/>
            </g>
        </g>
        <g id="Group_46" data-name="Group 46" transform="translate(12.359 48.306)">
            <g id="Group_45" data-name="Group 45">
            <path id="Path_40" data-name="Path 40" d="M37.069,190.584c-.379,1.317-.707,2.675-.981,4.026L40,195.4c.251-1.246.554-2.5.9-3.715Z" transform="translate(-36.088 -190.584)" fill="#151515" stroke="#151515" stroke-width="2"/>
            </g>
        </g>
        <g id="Group_48" data-name="Group 48" transform="translate(23.232 26.56)">
            <g id="Group_47" data-name="Group 47">
            <path id="Path_41" data-name="Path 41" d="M80.94,104.776c-.955,1-1.871,2.051-2.732,3.113l3.1,2.507c.793-.981,1.642-1.949,2.523-2.876Z" transform="translate(-78.208 -104.776)" fill="#151515" stroke="#151515" stroke-width="2"/>
            </g>
        </g>
        <g id="Group_50" data-name="Group 50" transform="translate(35.718 16.085)">
            <g id="Group_49" data-name="Group 49">
            <path id="Path_42" data-name="Path 42" d="M131.087,64.568c-1.206.644-2.407,1.351-3.575,2.1l2.16,3.352c1.076-.7,2.184-1.347,3.292-1.939Z" transform="translate(-127.512 -64.568)" fill="#151515" stroke="#151515" stroke-width="2"/>
            </g>
        </g>
        <g id="Group_52" data-name="Group 52" transform="translate(18.172 33.106)">
            <g id="Group_51" data-name="Group 51">
            <path id="Path_43" data-name="Path 43" d="M61.628,130.6c-.779,1.138-1.521,2.318-2.2,3.512l3.458,1.981c.63-1.1,1.315-2.19,2.035-3.239Z" transform="translate(-59.424 -130.6)" fill="#151515" stroke="#151515" stroke-width="2"/>
            </g>
        </g>
        <g id="Group_54" data-name="Group 54" transform="translate(51.233 110.682)">
            <g id="Group_53" data-name="Group 53">
            <path id="Path_44" data-name="Path 44" d="M199.723,436.256l-.787,3.908c1.341.271,2.72.488,4.1.65l.462-3.958C202.23,436.706,200.959,436.505,199.723,436.256Z" transform="translate(-198.936 -436.256)" fill="#151515" stroke="#151515" stroke-width="2"/>
            </g>
        </g>
        <g id="Group_56" data-name="Group 56" transform="translate(77.789 110.658)">
            <g id="Group_55" data-name="Group 55">
            <path id="Path_45" data-name="Path 45" d="M267.019,436.16c-1.238.251-2.507.456-3.779.612l.48,3.958c1.375-.167,2.75-.391,4.09-.662Z" transform="translate(-263.24 -436.16)" fill="#151515" stroke="#151515" stroke-width="2"/>
            </g>
        </g>
        <g id="Group_58" data-name="Group 58" transform="translate(69.006 111.574)">
            <g id="Group_57" data-name="Group 57">
            <path id="Path_46" data-name="Path 46" d="M235.936,439.84c-1.273.05-2.561.056-3.826.006l-.157,3.982c.664.028,1.333.04,2.011.04.713,0,1.425-.018,2.132-.046Z" transform="translate(-231.952 -439.84)" fill="#151515" stroke="#151515" stroke-width="2"/>
            </g>
        </g>
        <g id="Group_60" data-name="Group 60" transform="translate(96.692 23.632)">
            <g id="Group_59" data-name="Group 59">
            <path id="Path_47" data-name="Path 47" d="M370.919,93.224l-2.663,2.966c.949.853,1.869,1.75,2.74,2.667l2.894-2.74C372.945,95.119,371.947,94.147,370.919,93.224Z" transform="translate(-368.256 -93.224)" fill="#151515" stroke="#151515" stroke-width="2"/>
            </g>
        </g>
        <g id="Group_62" data-name="Group 62" transform="translate(102.042 29.74)">
            <g id="Group_61" data-name="Group 61">
            <path id="Path_48" data-name="Path 48" d="M392.483,117.32l-3.1,2.507c.8.983,1.564,2.017,2.286,3.069l3.286-2.254C394.175,119.5,393.344,118.386,392.483,117.32Z" transform="translate(-389.384 -117.32)" fill="#151515" stroke="#151515" stroke-width="2"/>
            </g>
        </g>
        <g id="Group_64" data-name="Group 64" transform="translate(113.044 60.769)">
            <g id="Group_63" data-name="Group 63">
            <path id="Path_49" data-name="Path 49" d="M435.83,239.776l-3.982.155c.026.628.038,1.262.038,1.893,0,.648-.012,1.291-.038,1.935l3.982.155q.042-1.04.042-2.095C435.872,241.137,435.858,240.454,435.83,239.776Z" transform="translate(-431.848 -239.776)" fill="#151515" stroke="#151515" stroke-width="2"/>
            </g>
        </g>
        <g id="Group_66" data-name="Group 66" transform="translate(106.43 36.689)">
            <g id="Group_65" data-name="Group 65">
            <path id="Path_50" data-name="Path 50" d="M410.18,144.736l-3.46,1.983c.632,1.1,1.226,2.244,1.768,3.392l3.605-1.7C411.507,147.165,410.863,145.93,410.18,144.736Z" transform="translate(-406.72 -144.736)" fill="#151515" stroke="#151515" stroke-width="2"/>
            </g>
        </g>
        <g id="Group_68" data-name="Group 68" transform="translate(110.039 44.311)">
            <g id="Group_67" data-name="Group 67">
            <path id="Path_51" data-name="Path 51" d="M423.515,174.816l-3.731,1.4c.446,1.188.849,2.409,1.2,3.629l3.832-1.1C424.438,177.427,424,176.1,423.515,174.816Z" transform="translate(-419.784 -174.816)" fill="#151515" stroke="#151515" stroke-width="2"/>
            </g>
        </g>
        <g id="Group_70" data-name="Group 70" transform="translate(112.141 52.408)">
            <g id="Group_69" data-name="Group 69">
            <path id="Path_52" data-name="Path 52" d="M432.13,206.776l-3.906.785c.251,1.248.454,2.519.6,3.779l3.958-.47C432.622,209.506,432.4,208.129,432.13,206.776Z" transform="translate(-428.224 -206.776)" fill="#151515" stroke="#151515" stroke-width="2"/>
            </g>
        </g>
        <g id="Group_72" data-name="Group 72" transform="translate(90.515 18.196)">
            <g id="Group_71" data-name="Group 71">
            <path id="Path_53" data-name="Path 53" d="M346.03,73.04l-2.158,3.352c1.064.686,2.117,1.425,3.131,2.2l2.419-3.171C348.324,74.583,347.184,73.783,346.03,73.04Z" transform="translate(-343.872 -73.04)" fill="#151515" stroke="#151515" stroke-width="2"/>
            </g>
        </g>
        <g id="Group_74" data-name="Group 74" transform="translate(83.663 14.281)">
            <g id="Group_73" data-name="Group 73">
            <path id="Path_54" data-name="Path 54" d="M318.42,57.328l-1.6,3.651c1.162.508,2.318,1.07,3.44,1.672l1.885-3.512C320.935,58.486,319.68,57.876,318.42,57.328Z" transform="translate(-316.824 -57.328)" fill="#151515" stroke="#151515" stroke-width="2"/>
            </g>
        </g>
        <path id="Path_55" data-name="Path 55" d="M169.357,92.009a6.684,6.684,0,0,0-9.447.335l-.148.16a6.684,6.684,0,1,0,9.812,9.078l.118-.126A6.684,6.684,0,0,0,169.357,92.009Z" transform="translate(-146.219 -57.793)" fill="#151515" stroke="#151515" stroke-width="5"/>
        <path id="Path_56" data-name="Path 56" d="M169.357,92.009a6.684,6.684,0,0,0-9.447.335l-.148.16a6.684,6.684,0,1,0,9.812,9.078l.118-.126A6.684,6.684,0,0,0,169.357,92.009Z" transform="translate(-58.59 -60.367)" fill="#151515" stroke="#151515" stroke-width="5"/>
        <path id="Path_57" data-name="Path 57" d="M169.357,92.009a6.684,6.684,0,0,0-9.447.335l-.148.16a6.684,6.684,0,1,0,9.812,9.078l.118-.126A6.684,6.684,0,0,0,169.357,92.009Z" transform="translate(-98.015 14.345)" fill="#151515" stroke="#151515" stroke-width="5"/>
        </g>
        <g id="team-2" data-name="team" transform="translate(1079 2217)">
        <g id="Group_32-2" data-name="Group 32" transform="translate(40.225)">
            <g id="Group_31-2" data-name="Group 31">
            <path id="Path_33-2" data-name="Path 33" d="M177.294,24.248a13.951,13.951,0,1,0-18.758,0A17.96,17.96,0,0,0,144,41.852v7.972a1.992,1.992,0,0,0,1.993,1.993h43.845a1.992,1.992,0,0,0,1.993-1.993V41.852A17.96,17.96,0,0,0,177.294,24.248Zm-19.344-10.3a9.965,9.965,0,1,1,9.965,9.965A9.976,9.976,0,0,1,157.951,13.951Zm29.894,33.88H147.986V41.852A13.967,13.967,0,0,1,161.937,27.9h11.958a13.967,13.967,0,0,1,13.951,13.951Z" transform="translate(-144)" fill="#283fd9" stroke="#283fd9" stroke-width="3"/>
            </g>
        </g>
        <g id="Group_34-2" data-name="Group 34" transform="translate(0 69.762)">
            <g id="Group_33-2" data-name="Group 33">
            <path id="Path_34-2" data-name="Path 34" d="M33.294,296.248a13.951,13.951,0,1,0-18.758,0A17.96,17.96,0,0,0,0,313.852v7.972a1.992,1.992,0,0,0,1.993,1.993H45.838a1.992,1.992,0,0,0,1.993-1.993v-7.972A17.96,17.96,0,0,0,33.294,296.248Zm-19.344-10.3a9.965,9.965,0,1,1,9.965,9.965A9.976,9.976,0,0,1,13.951,285.951Zm29.894,33.88H3.986v-5.979A13.967,13.967,0,0,1,17.937,299.9H29.894a13.967,13.967,0,0,1,13.951,13.951Z" transform="translate(0 -272)" fill="#283fd9" stroke="#283fd9" stroke-width="3"/>
            </g>
        </g>
        <g id="Group_36-2" data-name="Group 36" transform="translate(85.63 69.762)">
            <g id="Group_35-2" data-name="Group 35">
            <path id="Path_35-2" data-name="Path 35" d="M321.294,296.248a13.951,13.951,0,1,0-18.758,0A17.96,17.96,0,0,0,288,313.852v7.972a1.992,1.992,0,0,0,1.993,1.993h43.845a1.992,1.992,0,0,0,1.993-1.993v-7.972A17.96,17.96,0,0,0,321.294,296.248Zm-19.344-10.3a9.965,9.965,0,1,1,9.965,9.965A9.976,9.976,0,0,1,301.951,285.951Zm29.894,33.88H291.986v-5.979A13.967,13.967,0,0,1,305.937,299.9h11.958a13.967,13.967,0,0,1,13.951,13.951Z" transform="translate(-288 -272)" fill="#283fd9" stroke="#283fd9" stroke-width="3"/>
            </g>
        </g>
        <g id="Group_38-2" data-name="Group 38" transform="translate(11.382 64.817)">
            <g id="Group_37-2" data-name="Group 37">
            <path id="Path_36-2" data-name="Path 36" d="M36.15,255.744l-3.982.155c.054,1.373.163,2.764.327,4.131l3.958-.474C36.3,258.295,36.2,257.012,36.15,255.744Z" transform="translate(-32.168 -255.744)" fill="#283fd9" stroke="#283fd9" stroke-width="3"/>
            </g>
        </g>
        <g id="Group_40-2" data-name="Group 40" transform="translate(11.382 56.563)">
            <g id="Group_39-2" data-name="Group 39">
            <path id="Path_37-2" data-name="Path 37" d="M32.493,223.176c-.161,1.359-.273,2.748-.325,4.129l3.982.155c.05-1.275.151-2.557.3-3.814Z" transform="translate(-32.168 -223.176)" fill="#283fd9" stroke="#283fd9" stroke-width="3"/>
            </g>
        </g>
        <g id="Group_42-2" data-name="Group 42" transform="translate(29.027 20.924)">
            <g id="Group_41-2" data-name="Group 41">
            <path id="Path_38-2" data-name="Path 38" d="M104.283,82.544c-1.09.831-2.164,1.72-3.195,2.645l2.665,2.966c.949-.853,1.939-1.674,2.946-2.439Z" transform="translate(-101.088 -82.544)" fill="#283fd9" stroke="#283fd9" stroke-width="3"/>
            </g>
        </g>
        <g id="Group_44-2" data-name="Group 44" transform="translate(14.642 40.415)">
            <g id="Group_43-2" data-name="Group 43">
            <path id="Path_39-2" data-name="Path 39" d="M46.87,159.44c-.586,1.246-1.128,2.529-1.614,3.822l3.731,1.4c.448-1.192.949-2.376,1.489-3.522Z" transform="translate(-45.256 -159.44)" fill="#283fd9" stroke="#283fd9" stroke-width="3"/>
            </g>
        </g>
        <g id="Group_46-2" data-name="Group 46" transform="translate(12.359 48.306)">
            <g id="Group_45-2" data-name="Group 45">
            <path id="Path_40-2" data-name="Path 40" d="M37.069,190.584c-.379,1.317-.707,2.675-.981,4.026L40,195.4c.251-1.246.554-2.5.9-3.715Z" transform="translate(-36.088 -190.584)" fill="#283fd9" stroke="#283fd9" stroke-width="3"/>
            </g>
        </g>
        <g id="Group_48-2" data-name="Group 48" transform="translate(23.232 26.56)">
            <g id="Group_47-2" data-name="Group 47">
            <path id="Path_41-2" data-name="Path 41" d="M80.94,104.776c-.955,1-1.871,2.051-2.732,3.113l3.1,2.507c.793-.981,1.642-1.949,2.523-2.876Z" transform="translate(-78.208 -104.776)" fill="#283fd9" stroke="#283fd9" stroke-width="3"/>
            </g>
        </g>
        <g id="Group_50-2" data-name="Group 50" transform="translate(35.718 16.085)">
            <g id="Group_49-2" data-name="Group 49">
            <path id="Path_42-2" data-name="Path 42" d="M131.087,64.568c-1.206.644-2.407,1.351-3.575,2.1l2.16,3.352c1.076-.7,2.184-1.347,3.292-1.939Z" transform="translate(-127.512 -64.568)" fill="#283fd9" stroke="#283fd9" stroke-width="3"/>
            </g>
        </g>
        <g id="Group_52-2" data-name="Group 52" transform="translate(18.172 33.106)">
            <g id="Group_51-2" data-name="Group 51">
            <path id="Path_43-2" data-name="Path 43" d="M61.628,130.6c-.779,1.138-1.521,2.318-2.2,3.512l3.458,1.981c.63-1.1,1.315-2.19,2.035-3.239Z" transform="translate(-59.424 -130.6)" fill="#283fd9" stroke="#283fd9" stroke-width="3"/>
            </g>
        </g>
        <g id="Group_54-2" data-name="Group 54" transform="translate(51.233 110.682)">
            <g id="Group_53-2" data-name="Group 53">
            <path id="Path_44-2" data-name="Path 44" d="M199.723,436.256l-.787,3.908c1.341.271,2.72.488,4.1.65l.462-3.958C202.23,436.706,200.959,436.505,199.723,436.256Z" transform="translate(-198.936 -436.256)" fill="#283fd9" stroke="#283fd9" stroke-width="3"/>
            </g>
        </g>
        <g id="Group_56-2" data-name="Group 56" transform="translate(77.789 110.658)">
            <g id="Group_55-2" data-name="Group 55">
            <path id="Path_45-2" data-name="Path 45" d="M267.019,436.16c-1.238.251-2.507.456-3.779.612l.48,3.958c1.375-.167,2.75-.391,4.09-.662Z" transform="translate(-263.24 -436.16)" fill="#283fd9" stroke="#283fd9" stroke-width="3"/>
            </g>
        </g>
        <g id="Group_58-2" data-name="Group 58" transform="translate(69.006 111.574)">
            <g id="Group_57-2" data-name="Group 57">
            <path id="Path_46-2" data-name="Path 46" d="M235.936,439.84c-1.273.05-2.561.056-3.826.006l-.157,3.982c.664.028,1.333.04,2.011.04.713,0,1.425-.018,2.132-.046Z" transform="translate(-231.952 -439.84)" fill="#283fd9" stroke="#283fd9" stroke-width="3"/>
            </g>
        </g>
        <g id="Group_60-2" data-name="Group 60" transform="translate(96.692 23.632)">
            <g id="Group_59-2" data-name="Group 59">
            <path id="Path_47-2" data-name="Path 47" d="M370.919,93.224l-2.663,2.966c.949.853,1.869,1.75,2.74,2.667l2.894-2.74C372.945,95.119,371.947,94.147,370.919,93.224Z" transform="translate(-368.256 -93.224)" fill="#283fd9" stroke="#283fd9" stroke-width="3"/>
            </g>
        </g>
        <g id="Group_62-2" data-name="Group 62" transform="translate(102.042 29.74)">
            <g id="Group_61-2" data-name="Group 61">
            <path id="Path_48-2" data-name="Path 48" d="M392.483,117.32l-3.1,2.507c.8.983,1.564,2.017,2.286,3.069l3.286-2.254C394.175,119.5,393.344,118.386,392.483,117.32Z" transform="translate(-389.384 -117.32)" fill="#283fd9" stroke="#283fd9" stroke-width="3"/>
            </g>
        </g>
        <g id="Group_64-2" data-name="Group 64" transform="translate(113.044 60.769)">
            <g id="Group_63-2" data-name="Group 63">
            <path id="Path_49-2" data-name="Path 49" d="M435.83,239.776l-3.982.155c.026.628.038,1.262.038,1.893,0,.648-.012,1.291-.038,1.935l3.982.155q.042-1.04.042-2.095C435.872,241.137,435.858,240.454,435.83,239.776Z" transform="translate(-431.848 -239.776)" fill="#283fd9" stroke="#283fd9" stroke-width="3"/>
            </g>
        </g>
        <g id="Group_66-2" data-name="Group 66" transform="translate(106.43 36.689)">
            <g id="Group_65-2" data-name="Group 65">
            <path id="Path_50-2" data-name="Path 50" d="M410.18,144.736l-3.46,1.983c.632,1.1,1.226,2.244,1.768,3.392l3.605-1.7C411.507,147.165,410.863,145.93,410.18,144.736Z" transform="translate(-406.72 -144.736)" fill="#283fd9" stroke="#283fd9" stroke-width="3"/>
            </g>
        </g>
        <g id="Group_68-2" data-name="Group 68" transform="translate(110.039 44.311)">
            <g id="Group_67-2" data-name="Group 67">
            <path id="Path_51-2" data-name="Path 51" d="M423.515,174.816l-3.731,1.4c.446,1.188.849,2.409,1.2,3.629l3.832-1.1C424.438,177.427,424,176.1,423.515,174.816Z" transform="translate(-419.784 -174.816)" fill="#283fd9" stroke="#283fd9" stroke-width="3"/>
            </g>
        </g>
        <g id="Group_70-2" data-name="Group 70" transform="translate(112.141 52.408)">
            <g id="Group_69-2" data-name="Group 69">
            <path id="Path_52-2" data-name="Path 52" d="M432.13,206.776l-3.906.785c.251,1.248.454,2.519.6,3.779l3.958-.47C432.622,209.506,432.4,208.129,432.13,206.776Z" transform="translate(-428.224 -206.776)" fill="#283fd9" stroke="#283fd9" stroke-width="3"/>
            </g>
        </g>
        <g id="Group_72-2" data-name="Group 72" transform="translate(90.515 18.196)">
            <g id="Group_71-2" data-name="Group 71">
            <path id="Path_53-2" data-name="Path 53" d="M346.03,73.04l-2.158,3.352c1.064.686,2.117,1.425,3.131,2.2l2.419-3.171C348.324,74.583,347.184,73.783,346.03,73.04Z" transform="translate(-343.872 -73.04)" fill="#283fd9" stroke="#283fd9" stroke-width="3"/>
            </g>
        </g>
        <g id="Group_74-2" data-name="Group 74" transform="translate(83.663 14.281)">
            <g id="Group_73-2" data-name="Group 73">
            <path id="Path_54-2" data-name="Path 54" d="M318.42,57.328l-1.6,3.651c1.162.508,2.318,1.07,3.44,1.672l1.885-3.512C320.935,58.486,319.68,57.876,318.42,57.328Z" transform="translate(-316.824 -57.328)" fill="#283fd9" stroke="#283fd9" stroke-width="3"/>
            </g>
        </g>
        <path id="Path_55-2" data-name="Path 55" d="M169.357,92.009a6.684,6.684,0,0,0-9.447.335l-.148.16a6.684,6.684,0,1,0,9.812,9.078l.118-.126A6.684,6.684,0,0,0,169.357,92.009Z" transform="translate(-146.219 -57.793)" fill="#fff" stroke="#283fd9" stroke-width="5"/>
        <path id="Path_56-2" data-name="Path 56" d="M169.357,92.009a6.684,6.684,0,0,0-9.447.335l-.148.16a6.684,6.684,0,1,0,9.812,9.078l.118-.126A6.684,6.684,0,0,0,169.357,92.009Z" transform="translate(-58.59 -60.367)" fill="#fff" stroke="#283fd9" stroke-width="5"/>
        <path id="Path_57-2" data-name="Path 57" d="M169.357,92.009a6.684,6.684,0,0,0-9.447.335l-.148.16a6.684,6.684,0,1,0,9.812,9.078l.118-.126A6.684,6.684,0,0,0,169.357,92.009Z" transform="translate(-98.015 14.345)" fill="#fff" stroke="#283fd9" stroke-width="5"/>
        </g>
    </g>
</svg>