<svg height="150" viewBox="0 -5 130 150" width="150" xmlns="http://www.w3.org/2000/svg"><g fill="#151515" opacity=".15" stroke="#151515" transform="translate(4.026 9.921)"><g stroke-width="2"><path d="m177.294 24.248a13.951 13.951 0 1 0 -18.758 0 17.96 17.96 0 0 0 -14.536 17.604v7.972a1.992 1.992 0 0 0 1.993 1.993h43.845a1.992 1.992 0 0 0 1.993-1.993v-7.972a17.96 17.96 0 0 0 -14.537-17.604zm-19.344-10.3a9.965 9.965 0 1 1 9.965 9.965 9.976 9.976 0 0 1 -9.964-9.962zm29.894 33.88h-39.858v-5.976a13.967 13.967 0 0 1 13.951-13.952h11.958a13.967 13.967 0 0 1 13.951 13.951z" transform="translate(-103.775)"/><path d="m33.294 296.248a13.951 13.951 0 1 0 -18.758 0 17.96 17.96 0 0 0 -14.536 17.604v7.972a1.992 1.992 0 0 0 1.993 1.993h43.845a1.992 1.992 0 0 0 1.993-1.993v-7.972a17.96 17.96 0 0 0 -14.537-17.604zm-19.344-10.3a9.965 9.965 0 1 1 9.965 9.965 9.976 9.976 0 0 1 -9.964-9.962zm29.894 33.88h-39.858v-5.979a13.967 13.967 0 0 1 13.951-13.949h11.957a13.967 13.967 0 0 1 13.951 13.951z" transform="translate(0 -202.238)"/><path d="m321.294 296.248a13.951 13.951 0 1 0 -18.758 0 17.96 17.96 0 0 0 -14.536 17.604v7.972a1.992 1.992 0 0 0 1.993 1.993h43.845a1.992 1.992 0 0 0 1.993-1.993v-7.972a17.96 17.96 0 0 0 -14.537-17.604zm-19.344-10.3a9.965 9.965 0 1 1 9.965 9.965 9.976 9.976 0 0 1 -9.964-9.962zm29.894 33.88h-39.858v-5.979a13.967 13.967 0 0 1 13.951-13.949h11.958a13.967 13.967 0 0 1 13.951 13.951z" transform="translate(-202.37 -202.238)"/><path d="m36.15 255.744-3.982.155c.054 1.373.163 2.764.327 4.131l3.958-.474c-.153-1.261-.253-2.544-.303-3.812z" transform="translate(-20.786 -190.927)"/><path d="m32.493 223.176c-.161 1.359-.273 2.748-.325 4.129l3.982.155c.05-1.275.151-2.557.3-3.814z" transform="translate(-20.786 -166.613)"/><path d="m104.283 82.544c-1.09.831-2.164 1.72-3.195 2.645l2.665 2.966c.949-.853 1.939-1.674 2.946-2.439z" transform="translate(-72.061 -61.62)"/><path d="m46.87 159.44c-.586 1.246-1.128 2.529-1.614 3.822l3.731 1.4c.448-1.192.949-2.376 1.489-3.522z" transform="translate(-30.614 -119.025)"/><path d="m37.069 190.584c-.379 1.317-.707 2.675-.981 4.026l3.912.79c.251-1.246.554-2.5.9-3.715z" transform="translate(-23.729 -142.278)"/><path d="m80.94 104.776c-.955 1-1.871 2.051-2.732 3.113l3.1 2.507c.793-.981 1.642-1.949 2.523-2.876z" transform="translate(-54.976 -78.216)"/><path d="m131.087 64.568c-1.206.644-2.407 1.351-3.575 2.1l2.16 3.352c1.076-.7 2.184-1.347 3.292-1.939z" transform="translate(-91.794 -48.483)"/><path d="m61.628 130.6c-.779 1.138-1.521 2.318-2.2 3.512l3.458 1.981c.63-1.1 1.315-2.19 2.035-3.239z" transform="translate(-41.252 -97.494)"/><path d="m199.723 436.256-.787 3.908c1.341.271 2.72.488 4.1.65l.462-3.958c-1.268-.15-2.539-.351-3.775-.6z" transform="translate(-147.703 -325.574)"/><path d="m267.019 436.16c-1.238.251-2.507.456-3.779.612l.48 3.958c1.375-.167 2.75-.391 4.09-.662z" transform="translate(-185.451 -325.502)"/><path d="m235.936 439.84c-1.273.05-2.561.056-3.826.006l-.157 3.982c.664.028 1.333.04 2.011.04.713 0 1.425-.018 2.132-.046z" transform="translate(-162.946 -328.266)"/><path d="m370.919 93.224-2.663 2.966c.949.853 1.869 1.75 2.74 2.667l2.894-2.74c-.945-.998-1.943-1.97-2.971-2.893z" transform="translate(-271.564 -69.592)"/><path d="m392.483 117.32-3.1 2.507c.8.983 1.564 2.017 2.286 3.069l3.286-2.254c-.78-1.142-1.611-2.256-2.472-3.322z" transform="translate(-287.342 -87.58)"/><path d="m435.83 239.776-3.982.155c.026.628.038 1.262.038 1.893 0 .648-.012 1.291-.038 1.935l3.982.155q.042-1.04.042-2.095c0-.682-.014-1.365-.042-2.043z" transform="translate(-318.804 -179.007)"/><path d="m410.18 144.736-3.46 1.983c.632 1.1 1.226 2.244 1.768 3.392l3.605-1.7c-.586-1.246-1.23-2.481-1.913-3.675z" transform="translate(-300.29 -108.047)"/><path d="m423.515 174.816-3.731 1.4c.446 1.188.849 2.409 1.2 3.629l3.832-1.1c-.378-1.318-.816-2.645-1.301-3.929z" transform="translate(-309.745 -130.505)"/><path d="m432.13 206.776-3.906.785c.251 1.248.454 2.519.6 3.779l3.958-.47c-.16-1.364-.382-2.741-.652-4.094z" transform="translate(-316.083 -154.368)"/><path d="m346.03 73.04-2.158 3.352c1.064.686 2.117 1.425 3.131 2.2l2.419-3.171c-1.098-.838-2.238-1.638-3.392-2.381z" transform="translate(-253.357 -54.844)"/><path d="m318.42 57.328-1.6 3.651c1.162.508 2.318 1.07 3.44 1.672l1.885-3.512c-1.21-.653-2.465-1.263-3.725-1.811z" transform="translate(-233.161 -43.047)"/></g><path d="m169.357 92.009a6.684 6.684 0 0 0 -9.447.335l-.148.16a6.684 6.684 0 1 0 9.812 9.078l.118-.126a6.684 6.684 0 0 0 -.335-9.447z" stroke-width="5" transform="translate(-146.219 -57.793)"/><path d="m169.357 92.009a6.684 6.684 0 0 0 -9.447.335l-.148.16a6.684 6.684 0 1 0 9.812 9.078l.118-.126a6.684 6.684 0 0 0 -.335-9.447z" stroke-width="5" transform="translate(-58.59 -60.367)"/><path d="m169.357 92.009a6.684 6.684 0 0 0 -9.447.335l-.148.16a6.684 6.684 0 1 0 9.812 9.078l.118-.126a6.684 6.684 0 0 0 -.335-9.447z" stroke-width="5" transform="translate(-98.015 14.345)"/></g><g stroke="#283fd9"><path d="m177.294 24.248a13.951 13.951 0 1 0 -18.758 0 17.96 17.96 0 0 0 -14.536 17.604v7.972a1.992 1.992 0 0 0 1.993 1.993h43.845a1.992 1.992 0 0 0 1.993-1.993v-7.972a17.96 17.96 0 0 0 -14.537-17.604zm-19.344-10.3a9.965 9.965 0 1 1 9.965 9.965 9.976 9.976 0 0 1 -9.964-9.962zm29.894 33.88h-39.858v-5.976a13.967 13.967 0 0 1 13.951-13.952h11.958a13.967 13.967 0 0 1 13.951 13.951z" fill="#283fd9" stroke-width="3" transform="translate(-102.275 1.5)"/><path d="m33.294 296.248a13.951 13.951 0 1 0 -18.758 0 17.96 17.96 0 0 0 -14.536 17.604v7.972a1.992 1.992 0 0 0 1.993 1.993h43.845a1.992 1.992 0 0 0 1.993-1.993v-7.972a17.96 17.96 0 0 0 -14.537-17.604zm-19.344-10.3a9.965 9.965 0 1 1 9.965 9.965 9.976 9.976 0 0 1 -9.964-9.962zm29.894 33.88h-39.858v-5.979a13.967 13.967 0 0 1 13.951-13.949h11.957a13.967 13.967 0 0 1 13.951 13.951z" fill="#283fd9" stroke-width="3" transform="translate(1.5 -200.738)"/><path d="m321.294 296.248a13.951 13.951 0 1 0 -18.758 0 17.96 17.96 0 0 0 -14.536 17.604v7.972a1.992 1.992 0 0 0 1.993 1.993h43.845a1.992 1.992 0 0 0 1.993-1.993v-7.972a17.96 17.96 0 0 0 -14.537-17.604zm-19.344-10.3a9.965 9.965 0 1 1 9.965 9.965 9.976 9.976 0 0 1 -9.964-9.962zm29.894 33.88h-39.858v-5.979a13.967 13.967 0 0 1 13.951-13.949h11.958a13.967 13.967 0 0 1 13.951 13.951z" fill="#283fd9" stroke-width="3" transform="translate(-200.87 -200.738)"/><path d="m36.15 255.744-3.982.155c.054 1.373.163 2.764.327 4.131l3.958-.474c-.153-1.261-.253-2.544-.303-3.812z" fill="#283fd9" stroke-width="3" transform="translate(-19.286 -189.427)"/><path d="m32.493 223.176c-.161 1.359-.273 2.748-.325 4.129l3.982.155c.05-1.275.151-2.557.3-3.814z" fill="#283fd9" stroke-width="3" transform="translate(-19.286 -165.113)"/><path d="m104.283 82.544c-1.09.831-2.164 1.72-3.195 2.645l2.665 2.966c.949-.853 1.939-1.674 2.946-2.439z" fill="#283fd9" stroke-width="3" transform="translate(-70.561 -60.12)"/><path d="m46.87 159.44c-.586 1.246-1.128 2.529-1.614 3.822l3.731 1.4c.448-1.192.949-2.376 1.489-3.522z" fill="#283fd9" stroke-width="3" transform="translate(-29.114 -117.525)"/><path d="m37.069 190.584c-.379 1.317-.707 2.675-.981 4.026l3.912.79c.251-1.246.554-2.5.9-3.715z" fill="#283fd9" stroke-width="3" transform="translate(-22.229 -140.778)"/><path d="m80.94 104.776c-.955 1-1.871 2.051-2.732 3.113l3.1 2.507c.793-.981 1.642-1.949 2.523-2.876z" fill="#283fd9" stroke-width="3" transform="translate(-53.476 -76.716)"/><path d="m131.087 64.568c-1.206.644-2.407 1.351-3.575 2.1l2.16 3.352c1.076-.7 2.184-1.347 3.292-1.939z" fill="#283fd9" stroke-width="3" transform="translate(-90.294 -46.983)"/><path d="m61.628 130.6c-.779 1.138-1.521 2.318-2.2 3.512l3.458 1.981c.63-1.1 1.315-2.19 2.035-3.239z" fill="#283fd9" stroke-width="3" transform="translate(-39.752 -95.994)"/><path d="m199.723 436.256-.787 3.908c1.341.271 2.72.488 4.1.65l.462-3.958c-1.268-.15-2.539-.351-3.775-.6z" fill="#283fd9" stroke-width="3" transform="translate(-146.203 -324.074)"/><path d="m267.019 436.16c-1.238.251-2.507.456-3.779.612l.48 3.958c1.375-.167 2.75-.391 4.09-.662z" fill="#283fd9" stroke-width="3" transform="translate(-183.951 -324.002)"/><path d="m235.936 439.84c-1.273.05-2.561.056-3.826.006l-.157 3.982c.664.028 1.333.04 2.011.04.713 0 1.425-.018 2.132-.046z" fill="#283fd9" stroke-width="3" transform="translate(-161.446 -326.766)"/><path d="m370.919 93.224-2.663 2.966c.949.853 1.869 1.75 2.74 2.667l2.894-2.74c-.945-.998-1.943-1.97-2.971-2.893z" fill="#283fd9" stroke-width="3" transform="translate(-270.064 -68.092)"/><path d="m392.483 117.32-3.1 2.507c.8.983 1.564 2.017 2.286 3.069l3.286-2.254c-.78-1.142-1.611-2.256-2.472-3.322z" fill="#283fd9" stroke-width="3" transform="translate(-285.842 -86.08)"/><path d="m435.83 239.776-3.982.155c.026.628.038 1.262.038 1.893 0 .648-.012 1.291-.038 1.935l3.982.155q.042-1.04.042-2.095c0-.682-.014-1.365-.042-2.043z" fill="#283fd9" stroke-width="3" transform="translate(-317.304 -177.507)"/><path d="m410.18 144.736-3.46 1.983c.632 1.1 1.226 2.244 1.768 3.392l3.605-1.7c-.586-1.246-1.23-2.481-1.913-3.675z" fill="#283fd9" stroke-width="3" transform="translate(-298.79 -106.547)"/><path d="m423.515 174.816-3.731 1.4c.446 1.188.849 2.409 1.2 3.629l3.832-1.1c-.378-1.318-.816-2.645-1.301-3.929z" fill="#283fd9" stroke-width="3" transform="translate(-308.245 -129.005)"/><path d="m432.13 206.776-3.906.785c.251 1.248.454 2.519.6 3.779l3.958-.47c-.16-1.364-.382-2.741-.652-4.094z" fill="#283fd9" stroke-width="3" transform="translate(-314.583 -152.868)"/><path d="m346.03 73.04-2.158 3.352c1.064.686 2.117 1.425 3.131 2.2l2.419-3.171c-1.098-.838-2.238-1.638-3.392-2.381z" fill="#283fd9" stroke-width="3" transform="translate(-251.857 -53.344)"/><path d="m318.42 57.328-1.6 3.651c1.162.508 2.318 1.07 3.44 1.672l1.885-3.512c-1.21-.653-2.465-1.263-3.725-1.811z" fill="#283fd9" stroke-width="3" transform="translate(-231.661 -41.547)"/><path d="m169.357 92.009a6.684 6.684 0 0 0 -9.447.335l-.148.16a6.684 6.684 0 1 0 9.812 9.078l.118-.126a6.684 6.684 0 0 0 -.335-9.447z" fill="#fff" stroke-width="5" transform="translate(-144.719 -56.293)"/><path d="m169.357 92.009a6.684 6.684 0 0 0 -9.447.335l-.148.16a6.684 6.684 0 1 0 9.812 9.078l.118-.126a6.684 6.684 0 0 0 -.335-9.447z" fill="#fff" stroke-width="5" transform="translate(-57.09 -58.867)"/><path d="m169.357 92.009a6.684 6.684 0 0 0 -9.447.335l-.148.16a6.684 6.684 0 1 0 9.812 9.078l.118-.126a6.684 6.684 0 0 0 -.335-9.447z" fill="#fff" stroke-width="5" transform="translate(-96.515 15.845)"/></g></svg>