<svg width="1234" height="376" viewBox="0 0 1234 376" fill="none" xmlns="http://www.w3.org/2000/svg">
<path fill-rule="evenodd" clip-rule="evenodd" d="M142.493 148H74.5071C72.5712 148 71 149.57 71 151.504V336.496C71 338.43 72.5712 340 74.5071 340H142.493C144.429 340 146 338.43 146 336.496V151.504C146 149.57 144.429 148 142.493 148ZM138.986 332.992H78.0268V302.166H94.5743C96.5102 302.166 98.0814 300.596 98.0814 298.662C98.0814 296.728 96.5102 295.158 94.5743 295.158H78.0268V281.143H94.5743C96.5102 281.143 98.0814 279.573 98.0814 277.639C98.0814 275.705 96.5102 274.135 94.5743 274.135H78.0268V260.12H94.5743C96.5102 260.12 98.0814 258.551 98.0814 256.617C98.0814 254.683 96.5102 253.113 94.5743 253.113H78.0268V239.098H94.5743C96.5102 239.098 98.0814 237.528 98.0814 235.594C98.0814 233.66 96.5102 232.09 94.5743 232.09H78.0268V218.075H94.5743C96.5102 218.075 98.0814 216.506 98.0814 214.572C98.0814 212.637 96.5102 211.068 94.5743 211.068H78.0268V197.053H94.5743C96.5102 197.053 98.0814 195.483 98.0814 193.549C98.0814 191.615 96.5102 190.045 94.5743 190.045H78.0268V176.03H94.5743C96.5102 176.03 98.0814 174.46 98.0814 172.526C98.0814 170.592 96.5102 169.023 94.5743 169.023H78.0268V155.008H138.998V332.992H138.986Z" fill="#E6BB22"/>
<path fill-rule="evenodd" clip-rule="evenodd" d="M954 2C954 3.10457 953.105 4 952 4C950.895 4 950 3.10457 950 2C950 0.89543 950.895 0 952 0C953.105 0 954 0.89543 954 2ZM824 76C824 77.1046 823.105 78 822 78C820.895 78 820 77.1046 820 76C820 74.8954 820.895 74 822 74C823.105 74 824 74.8954 824 76ZM912 84C913.105 84 914 83.1046 914 82C914 80.8954 913.105 80 912 80C910.895 80 910 80.8954 910 82C910 83.1046 910.895 84 912 84ZM1024 112C1024 113.105 1023.1 114 1022 114C1020.9 114 1020 113.105 1020 112C1020 110.895 1020.9 110 1022 110C1023.1 110 1024 110.895 1024 112ZM972 176C974.209 176 976 174.209 976 172C976 169.791 974.209 168 972 168C969.791 168 968 169.791 968 172C968 174.209 969.791 176 972 176ZM1032 296C1034.21 296 1036 294.209 1036 292C1036 289.791 1034.21 288 1032 288C1029.79 288 1028 289.791 1028 292C1028 294.209 1029.79 296 1032 296ZM956 302C956 304.209 954.209 306 952 306C949.791 306 948 304.209 948 302C948 299.791 949.791 298 952 298C954.209 298 956 299.791 956 302ZM882 236C884.209 236 886 234.209 886 232C886 229.791 884.209 228 882 228C879.791 228 878 229.791 878 232C878 234.209 879.791 236 882 236ZM914 143C914 144.105 913.105 145 912 145C910.895 145 910 144.105 910 143C910 141.895 910.895 141 912 141C913.105 141 914 141.895 914 143ZM822 145C823.105 145 824 144.105 824 143C824 141.895 823.105 141 822 141C820.895 141 820 141.895 820 143C820 144.105 820.895 145 822 145ZM1082 78C1083.1 78 1084 77.1046 1084 76C1084 74.8954 1083.1 74 1082 74C1080.9 74 1080 74.8954 1080 76C1080 77.1046 1080.9 78 1082 78Z" fill="#E6BB22"/>
<path fill-rule="evenodd" clip-rule="evenodd" d="M130 2C130 3.10457 130.895 4 132 4C133.105 4 134 3.10457 134 2C134 0.89543 133.105 0 132 0C130.895 0 130 0.89543 130 2ZM260 76C260 77.1046 260.895 78 262 78C263.105 78 264 77.1046 264 76C264 74.8954 263.105 74 262 74C260.895 74 260 74.8954 260 76ZM172 84C170.895 84 170 83.1046 170 82C170 80.8954 170.895 80 172 80C173.105 80 174 80.8954 174 82C174 83.1046 173.105 84 172 84ZM60 112C60 113.105 60.8954 114 62 114C63.1046 114 64 113.105 64 112C64 110.895 63.1046 110 62 110C60.8954 110 60 110.895 60 112ZM112 176C109.791 176 108 174.209 108 172C108 169.791 109.791 168 112 168C114.209 168 116 169.791 116 172C116 174.209 114.209 176 112 176ZM52 296C49.7909 296 48 294.209 48 292C48 289.791 49.7909 288 52 288C54.2091 288 56 289.791 56 292C56 294.209 54.2091 296 52 296ZM128 302C128 304.209 129.791 306 132 306C134.209 306 136 304.209 136 302C136 299.791 134.209 298 132 298C129.791 298 128 299.791 128 302ZM202 236C199.791 236 198 234.209 198 232C198 229.791 199.791 228 202 228C204.209 228 206 229.791 206 232C206 234.209 204.209 236 202 236ZM170 143C170 144.105 170.895 145 172 145C173.105 145 174 144.105 174 143C174 141.895 173.105 141 172 141C170.895 141 170 141.895 170 143ZM262 145C260.895 145 260 144.105 260 143C260 141.895 260.895 141 262 141C263.105 141 264 141.895 264 143C264 144.105 263.105 145 262 145ZM2 78C0.895416 78 0 77.1046 0 76C0 74.8954 0.895416 74 2 74C3.10458 74 4 74.8954 4 76C4 77.1046 3.10458 78 2 78Z" fill="#E6BB22"/>
<path fill-rule="evenodd" clip-rule="evenodd" d="M400 374C400 372.895 400.895 372 402 372C403.105 372 404 372.895 404 374C404 375.105 403.105 376 402 376C400.895 376 400 375.105 400 374ZM530 300C530 298.895 530.895 298 532 298C533.105 298 534 298.895 534 300C534 301.105 533.105 302 532 302C530.895 302 530 301.105 530 300ZM442 292C440.895 292 440 292.895 440 294C440 295.105 440.895 296 442 296C443.105 296 444 295.105 444 294C444 292.895 443.105 292 442 292ZM330 264C330 262.895 330.895 262 332 262C333.105 262 334 262.895 334 264C334 265.105 333.105 266 332 266C330.895 266 330 265.105 330 264ZM382 200C379.791 200 378 201.791 378 204C378 206.209 379.791 208 382 208C384.209 208 386 206.209 386 204C386 201.791 384.209 200 382 200ZM322 80C319.791 80 318 81.7909 318 84C318 86.2091 319.791 88 322 88C324.209 88 326 86.2091 326 84C326 81.7909 324.209 80 322 80ZM398 74C398 71.7909 399.791 70 402 70C404.209 70 406 71.7909 406 74C406 76.2091 404.209 78 402 78C399.791 78 398 76.2091 398 74ZM472 140C469.791 140 468 141.791 468 144C468 146.209 469.791 148 472 148C474.209 148 476 146.209 476 144C476 141.791 474.209 140 472 140ZM440 233C440 231.895 440.895 231 442 231C443.105 231 444 231.895 444 233C444 234.105 443.105 235 442 235C440.895 235 440 234.105 440 233ZM532 231C530.895 231 530 231.895 530 233C530 234.105 530.895 235 532 235C533.105 235 534 234.105 534 233C534 231.895 533.105 231 532 231ZM272 298C270.895 298 270 298.895 270 300C270 301.105 270.895 302 272 302C273.105 302 274 301.105 274 300C274 298.895 273.105 298 272 298Z" fill="#E6BB22"/>
<path fill-rule="evenodd" clip-rule="evenodd" d="M610 324C610 322.895 610.895 322 612 322C613.105 322 614 322.895 614 324C614 325.105 613.105 326 612 326C610.895 326 610 325.105 610 324ZM740 250C740 248.895 740.895 248 742 248C743.105 248 744 248.895 744 250C744 251.105 743.105 252 742 252C740.895 252 740 251.105 740 250ZM652 242C650.895 242 650 242.895 650 244C650 245.105 650.895 246 652 246C653.105 246 654 245.105 654 244C654 242.895 653.105 242 652 242ZM540 214C540 212.895 540.895 212 542 212C543.105 212 544 212.895 544 214C544 215.105 543.105 216 542 216C540.895 216 540 215.105 540 214ZM592 150C589.791 150 588 151.791 588 154C588 156.209 589.791 158 592 158C594.209 158 596 156.209 596 154C596 151.791 594.209 150 592 150ZM532 30C529.791 30 528 31.7909 528 34C528 36.2091 529.791 38 532 38C534.209 38 536 36.2091 536 34C536 31.7909 534.209 30 532 30ZM608 24C608 21.7909 609.791 20 612 20C614.209 20 616 21.7909 616 24C616 26.2091 614.209 28 612 28C609.791 28 608 26.2091 608 24ZM682 90C679.791 90 678 91.7909 678 94C678 96.2091 679.791 98 682 98C684.209 98 686 96.2091 686 94C686 91.7909 684.209 90 682 90ZM650 183C650 181.895 650.895 181 652 181C653.105 181 654 181.895 654 183C654 184.105 653.105 185 652 185C650.895 185 650 184.105 650 183ZM742 181C740.895 181 740 181.895 740 183C740 184.105 740.895 185 742 185C743.105 185 744 184.105 744 183C744 181.895 743.105 181 742 181ZM482 248C480.895 248 480 248.895 480 250C480 251.105 480.895 252 482 252C483.105 252 484 251.105 484 250C484 248.895 483.105 248 482 248Z" fill="#E6BB22"/>
<path fill-rule="evenodd" clip-rule="evenodd" d="M161 265V340H204.42V308.42H236V265H161ZM212.315 340L236 316.315H212.315V340Z" fill="#E6BB22"/>
<path fill-rule="evenodd" clip-rule="evenodd" d="M1169.09 233.015C1165.55 232.965 1162.16 234.297 1159.57 237.117L1159.43 236.972L1124.27 271.687C1115.91 280.051 1115.91 293.351 1124.27 301.715C1132.64 310.078 1145.94 310.078 1154.3 301.715L1177.01 279.008L1173.78 275.636L1172.02 277.25L1150.93 298.344C1144.29 304.98 1134.27 304.98 1127.64 298.344C1121 291.707 1121 281.687 1127.64 275.051L1162.79 240.336V240.191C1166.03 236.586 1172.15 236.89 1175.98 240.336C1179.64 243.633 1179.64 249.57 1175.84 253.371L1140.68 288.086C1139.63 289.133 1138.5 289.133 1137.45 288.086C1136.41 287.039 1136.41 285.91 1137.45 284.859L1160.16 262.152L1156.93 258.781L1155.18 260.394L1134.08 281.488C1131.38 284.191 1131.38 288.746 1134.08 291.449C1136.78 294.152 1141.34 294.152 1144.04 291.449L1179.2 256.734C1184.77 251.16 1184.77 242.101 1179.05 236.957C1176.28 234.457 1172.68 233.058 1169.09 233V233.015Z" fill="#E6BB22"/>
<path fill-rule="evenodd" clip-rule="evenodd" d="M1212.89 359.992C1211.09 360.018 1209.37 359.343 1208.06 357.914L1207.99 357.988L1190.18 340.399C1185.94 336.161 1185.94 329.422 1190.18 325.184C1194.42 320.947 1201.15 320.947 1205.39 325.184L1216.9 336.689L1215.26 338.398L1214.37 337.58L1203.68 326.892C1200.32 323.53 1195.24 323.53 1191.88 326.892C1188.52 330.255 1188.52 335.332 1191.88 338.694L1209.69 356.283V356.357C1211.34 358.183 1214.43 358.029 1216.38 356.283C1218.23 354.613 1218.23 351.605 1216.3 349.679L1198.49 332.09C1197.96 331.559 1197.39 331.559 1196.86 332.09C1196.33 332.62 1196.33 333.192 1196.86 333.725L1208.36 345.23L1206.73 346.938L1205.84 346.12L1195.15 335.433C1193.78 334.063 1193.78 331.755 1195.15 330.386C1196.52 329.016 1198.83 329.016 1200.19 330.386L1218.01 347.975C1220.83 350.799 1220.83 355.389 1217.93 357.995C1216.53 359.262 1214.7 359.971 1212.89 360V359.992Z" fill="#E6BB22"/>
<path fill-rule="evenodd" clip-rule="evenodd" d="M1157.17 180.364C1155.69 178.837 1153.68 177.966 1151.39 178.065L1151.39 177.942L1121.75 177.755C1114.65 177.755 1109.01 183.398 1109.01 190.495C1109.01 197.591 1114.65 203.234 1121.75 203.234H1141.02L1141.08 200.435L1139.65 200.374L1121.75 200.374C1116.12 200.374 1111.87 196.122 1111.87 190.492C1111.87 184.86 1116.12 180.609 1121.75 180.609L1151.39 180.796L1151.45 180.735C1154.36 180.581 1156.82 183.303 1156.99 186.391C1157.14 189.343 1154.62 191.86 1151.39 191.86L1121.75 191.673C1120.86 191.673 1120.38 191.194 1120.38 190.304C1120.38 189.416 1120.86 188.937 1121.75 188.935L1141.02 188.935L1141.08 186.136L1139.65 186.075L1121.75 186.075C1119.46 186.075 1117.52 188.007 1117.52 190.301C1117.52 192.594 1119.46 194.527 1121.75 194.527L1151.39 194.714C1156.12 194.714 1159.97 190.869 1159.72 186.262C1159.61 184.025 1158.67 181.903 1157.18 180.357L1157.17 180.364Z" fill="#E6BB22"/>
<path fill-rule="evenodd" clip-rule="evenodd" d="M1225.11 126.801C1225.69 128.849 1225.45 131.019 1224.21 132.955L1224.32 133.016L1209.66 158.783C1206.11 164.928 1198.4 166.994 1192.26 163.446C1186.11 159.897 1184.05 152.189 1187.6 146.043L1197.23 129.357L1199.68 130.703L1199.02 131.973L1190.07 147.473C1187.26 152.35 1188.81 158.157 1193.69 160.973C1198.57 163.788 1204.37 162.232 1207.19 157.355L1221.85 131.59L1221.93 131.567C1223.52 129.128 1222.39 125.633 1219.8 123.947C1217.32 122.338 1213.88 123.261 1212.27 126.055L1197.61 151.82C1197.17 152.59 1197.34 153.244 1198.11 153.691C1198.88 154.135 1199.53 153.96 1199.98 153.19L1209.61 136.503L1212.07 137.85L1211.41 139.119L1202.46 154.62C1201.31 156.606 1198.67 157.313 1196.69 156.167C1194.7 155.02 1193.99 152.38 1195.14 150.394L1209.8 124.628C1212.16 120.532 1217.41 119.127 1221.28 121.64C1223.16 122.86 1224.53 124.729 1225.12 126.799L1225.11 126.801Z" fill="#E6BB22"/>
</svg>
